<svg xmlns="http://www.w3.org/2000/svg" preserveAspectRatio="xMinYMid" class="bliss-svg" viewBox="-8 -8 560 336"><style>
.bliss-line,.bliss-disc,.bliss-dot{stroke:#000;stroke-linejoin:round;stroke-linecap:round;stroke-width:8}
.bliss-line{fill:none}
.bliss-disc,.bliss-dot{fill:#000}
.bliss-text{font-family:"Helvetica Neue",Helvetica,Arial,"Liberation Sans",sans-serif;fill:#000}
</style><g><line class="bliss-line" x1="0" y1="192" x2="64" y2="192"/><path class="bliss-line" d="M 160,192 A 40,40 0 0,0 96,192"/><path class="bliss-line" d="M 160,192 A 40,40 0 0,0 224,192"/><path class="bliss-line" d="M 288,128 A 80,80 0 0,0 288,256"/><line class="bliss-line" x1="288" y1="128" x2="416" y2="128"/><line class="bliss-line" x1="288" y1="256" x2="416" y2="256"/><line class="bliss-line" x1="320" y1="224" x2="352" y2="160"/><line class="bliss-line" x1="320" y1="224" x2="384" y2="224"/><line class="bliss-line" x1="352" y1="160" x2="384" y2="224"/><path class="bliss-line" d="M 416,256 A 80,80 0 0,0 416,128"/><line class="bliss-line" x1="480" y1="128" x2="480" y2="256"/><path class="bliss-line" d="M 480,256 A 64,64 0 0,0 480,128"/></g></svg>
