<svg xmlns="http://www.w3.org/2000/svg" preserveAspectRatio="xMinYMid" class="bliss-svg" viewBox="-8 -8 464 336"><style>
.bliss-line,.bliss-disc,.bliss-dot{stroke:#000;stroke-linejoin:round;stroke-linecap:round;stroke-width:8}
.bliss-line{fill:none}
.bliss-disc,.bliss-dot{fill:#000}
.bliss-text{font-family:"Helvetica Neue",Helvetica,Arial,"Liberation Sans",sans-serif;fill:#000}
</style><g><path class="bliss-line" d="M 64,160 A 32,32 0 0,0 0,160"/><path class="bliss-line" d="M 0,160 Q 0,208 64,256"/><circle class="bliss-line" cx="64" cy="192" r="32"/><line class="bliss-line" x1="64" y1="160" x2="64" y2="224"/><path class="bliss-line" d="M 128,160 A 32,32 0 0,0 64,160"/><path class="bliss-line" d="M 64,256 Q 128,208 128,160"/><path class="bliss-line" d="M 288,128 A 64,64 0 0,0 160,128"/><line class="bliss-line" x1="160" y1="256" x2="224" y2="128"/><line class="bliss-line" x1="160" y1="256" x2="288" y2="256"/><line class="bliss-line" x1="224" y1="128" x2="288" y2="256"/><path class="bliss-line" d="M 384,160 A 32,32 0 0,0 320,160"/><path class="bliss-line" d="M 320,160 Q 320,208 384,256"/><line class="bliss-line" x1="320" y1="128" x2="448" y2="128"/><line class="bliss-line" x1="320" y1="256" x2="448" y2="256"/><path class="bliss-line" d="M 448,160 A 32,32 0 0,0 384,160"/><path class="bliss-line" d="M 384,256 Q 448,208 448,160"/></g></svg>
