<svg xmlns="http://www.w3.org/2000/svg" preserveAspectRatio="xMinYMid" class="bliss-svg" viewBox="-8 -8 672 336"><style>
.bliss-line,.bliss-disc,.bliss-dot{stroke:#000;stroke-linejoin:round;stroke-linecap:round;stroke-width:8}
.bliss-line{fill:none}
.bliss-disc,.bliss-dot{fill:#000}
.bliss-text{font-family:"Helvetica Neue",Helvetica,Arial,"Liberation Sans",sans-serif;fill:#000}
</style><g><line class="bliss-line" x1="0" y1="256" x2="64" y2="192"/><line class="bliss-line" x1="0" y1="192" x2="64" y2="256"/><line class="bliss-line" x1="96" y1="256" x2="160" y2="256"/><line class="bliss-line" x1="128" y1="128" x2="128" y2="256"/><line class="bliss-line" x1="192" y1="192" x2="256" y2="256"/><line class="bliss-line" x1="192" y1="256" x2="320" y2="128"/><line class="bliss-line" x1="256" y1="128" x2="384" y2="256"/><line class="bliss-line" x1="320" y1="256" x2="384" y2="192"/><line class="bliss-line" x1="416" y1="192" x2="544" y2="64"/><line class="bliss-line" x1="416" y1="192" x2="656" y2="192"/><circle class="bliss-line" cx="496" cy="160" r="32"/><circle class="bliss-line" cx="496" cy="224" r="32"/><line class="bliss-line" x1="473.37258300203" y1="182.62741699797" x2="518.62741699793" y2="137.37258300206997"/><line class="bliss-line" x1="473.37258300203" y1="137.37258300206997" x2="518.62741699793" y2="182.62741699797"/><line class="bliss-line" x1="473.37258300203" y1="246.62741699797" x2="518.62741699793" y2="201.37258300206997"/><line class="bliss-line" x1="473.37258300203" y1="201.37258300206997" x2="518.62741699793" y2="246.62741699797"/><circle class="bliss-line" cx="560" cy="224" r="32"/><line class="bliss-line" x1="537.37258300203" y1="246.62741699797" x2="582.6274169979299" y2="201.37258300206997"/><line class="bliss-line" x1="537.37258300203" y1="201.37258300206997" x2="582.6274169979299" y2="246.62741699797"/><circle class="bliss-line" cx="624" cy="224" r="32"/><line class="bliss-line" x1="601.3725830020301" y1="246.62741699797" x2="646.62741699793" y2="201.37258300206997"/><line class="bliss-line" x1="601.3725830020301" y1="201.37258300206997" x2="646.62741699793" y2="246.62741699797"/><line class="bliss-line" x1="608" y1="176" x2="640" y2="144"/><line class="bliss-line" x1="624" y1="160" x2="656" y2="192"/></g></svg>
