<svg xmlns="http://www.w3.org/2000/svg" preserveAspectRatio="xMinYMid" class="bliss-svg" viewBox="-8 -8 560 336"><style>
.bliss-line,.bliss-disc,.bliss-dot{stroke:#000;stroke-linejoin:round;stroke-linecap:round;stroke-width:8}
.bliss-line{fill:none}
.bliss-disc,.bliss-dot{fill:#000}
.bliss-text{font-family:"Helvetica Neue",Helvetica,Arial,"Liberation Sans",sans-serif;fill:#000}
</style><g><path class="bliss-line" d="M 128,192 A 64,64 0 0,0 0,192"/><line class="bliss-line" x1="96" y1="160" x2="128" y2="192"/><line class="bliss-line" x1="128" y1="192" x2="160" y2="160"/><line class="bliss-line" x1="32" y1="224" x2="64" y2="192"/><line class="bliss-line" x1="64" y1="192" x2="96" y2="224"/><path class="bliss-line" d="M 64,192 A 64,64 0 0,0 192,192"/><circle class="bliss-dot" cx="224" cy="256" r="4"/><circle class="bliss-dot" cx="288" cy="192" r="4"/><circle class="bliss-dot" cx="288" cy="256" r="4"/><line class="bliss-line" x1="320" y1="256" x2="384" y2="192"/><line class="bliss-line" x1="320" y1="192" x2="384" y2="256"/><path class="bliss-line" d="M 480,192 A 40,40 0 0,0 416,192"/><path class="bliss-line" d="M 480,192 A 40,40 0 0,0 544,192"/></g></svg>
