<svg xmlns="http://www.w3.org/2000/svg" preserveAspectRatio="xMinYMid" class="bliss-svg" viewBox="-8 -8 368 336"><style>
.bliss-line,.bliss-disc,.bliss-dot{stroke:#000;stroke-linejoin:round;stroke-linecap:round;stroke-width:8}
.bliss-line{fill:none}
.bliss-disc,.bliss-dot{fill:#000}
.bliss-text{font-family:"Helvetica Neue",Helvetica,Arial,"Liberation Sans",sans-serif;fill:#000}
</style><g><line class="bliss-line" x1="0" y1="128" x2="0" y2="256"/><line class="bliss-line" x1="0" y1="256" x2="128" y2="256"/><path class="bliss-line" d="M 64,192 A 16,16 0 1,0 48,176"/><line class="bliss-line" x1="64" y1="192" x2="64" y2="208"/><circle class="bliss-dot" cx="64" cy="224" r="4"/><line class="bliss-line" x1="128" y1="128" x2="128" y2="256"/><line class="bliss-line" x1="48" y1="96" x2="64" y2="64"/><line class="bliss-line" x1="64" y1="64" x2="80" y2="96"/><circle class="bliss-disc" cx="156" cy="256" r="4"/><path class="bliss-line" d="M 156,268 A 16,16 0 0,0 160,256"/><line class="bliss-line" x1="192" y1="160" x2="192" y2="208"/><circle class="bliss-dot" cx="192" cy="224" r="4"/><path class="bliss-line" d="M 288,160 A 32,32 0 0,0 224,160"/><path class="bliss-line" d="M 224,160 Q 224,208 288,256"/><path class="bliss-line" d="M 352,160 A 32,32 0 0,0 288,160"/><path class="bliss-line" d="M 288,256 Q 352,208 352,160"/></g></svg>
