<svg xmlns="http://www.w3.org/2000/svg" preserveAspectRatio="xMinYMid" class="bliss-svg" viewBox="-8 -8 464 336"><style>
.bliss-line,.bliss-disc,.bliss-dot{stroke:#000;stroke-linejoin:round;stroke-linecap:round;stroke-width:8}
.bliss-line{fill:none}
.bliss-disc,.bliss-dot{fill:#000}
.bliss-text{font-family:"Helvetica Neue",Helvetica,Arial,"Liberation Sans",sans-serif;fill:#000}
</style><g><line class="bliss-line" x1="0" y1="256" x2="128" y2="256"/><line class="bliss-line" x1="64" y1="128" x2="64" y2="256"/><line class="bliss-line" x1="64" y1="128" x2="128" y2="128"/><line class="bliss-line" x1="64" y1="192" x2="128" y2="192"/><line class="bliss-line" x1="128" y1="128" x2="128" y2="192"/><line class="bliss-line" x1="160" y1="256" x2="192" y2="192"/><path class="bliss-line" d="M 224,192 A 32,32 0 0,0 160,192"/><line class="bliss-line" x1="160" y1="192" x2="288" y2="192"/><line class="bliss-line" x1="192" y1="192" x2="224" y2="256"/><line class="bliss-line" x1="224" y1="256" x2="256" y2="192"/><path class="bliss-line" d="M 224,160 A 32,32 0 0,0 288,160"/><line class="bliss-line" x1="256" y1="192" x2="288" y2="256"/><path class="bliss-line" d="M 320,192 A 64,64 0 0,0 384,128"/><line class="bliss-line" x1="384" y1="128" x2="384" y2="256"/><path class="bliss-line" d="M 384,128 A 64,64 0 0,0 448,192"/></g></svg>
