<svg xmlns="http://www.w3.org/2000/svg" preserveAspectRatio="xMinYMid" class="bliss-svg" viewBox="-8 -8 592 336"><style>
.bliss-line,.bliss-disc,.bliss-dot{stroke:#000;stroke-linejoin:round;stroke-linecap:round;stroke-width:8}
.bliss-line{fill:none}
.bliss-disc,.bliss-dot{fill:#000}
.bliss-text{font-family:"Helvetica Neue",Helvetica,Arial,"Liberation Sans",sans-serif;fill:#000}
</style><g><line class="bliss-line" x1="0" y1="128" x2="0" y2="192"/><line class="bliss-line" x1="0" y1="256" x2="32" y2="192"/><line class="bliss-line" x1="0" y1="192" x2="64" y2="192"/><line class="bliss-line" x1="32" y1="192" x2="64" y2="256"/><line class="bliss-line" x1="64" y1="128" x2="64" y2="256"/><path class="bliss-line" d="M 128,208 A 16,16 0 0,0 96,208"/><line class="bliss-line" x1="96" y1="256" x2="128" y2="208"/><line class="bliss-line" x1="96" y1="256" x2="128" y2="256"/><line class="bliss-line" x1="160" y1="256" x2="288" y2="256"/><path class="bliss-line" d="M 288,256 A 64,64 0 0,0 352,192"/><line class="bliss-line" x1="384" y1="192" x2="576" y2="192"/><path class="bliss-line" d="M 400,192 A 32,32 0 0,0 464,192"/></g></svg>
