<svg xmlns="http://www.w3.org/2000/svg" preserveAspectRatio="xMinYMid" class="bliss-svg" viewBox="-8 -8 592 336"><style>
.bliss-line,.bliss-disc,.bliss-dot{stroke:#000;stroke-linejoin:round;stroke-linecap:round;stroke-width:8}
.bliss-line{fill:none}
.bliss-disc,.bliss-dot{fill:#000}
.bliss-text{font-family:"Helvetica Neue",Helvetica,Arial,"Liberation Sans",sans-serif;fill:#000}
</style><g><line class="bliss-line" x1="0" y1="256" x2="64" y2="256"/><line class="bliss-line" x1="32" y1="128" x2="32" y2="256"/><path class="bliss-line" d="M 160,160 A 32,32 0 0,0 96,160"/><path class="bliss-line" d="M 96,160 Q 96,208 160,256"/><path class="bliss-line" d="M 224,160 A 32,32 0 0,0 160,160"/><path class="bliss-line" d="M 160,256 Q 224,208 224,160"/><path class="bliss-line" d="M 384,192 A 64,64 0 0,0 256,192"/><line class="bliss-line" x1="304" y1="160" x2="304" y2="208"/><circle class="bliss-dot" cx="304" cy="224" r="4"/><line class="bliss-line" x1="336" y1="160" x2="336" y2="208"/><circle class="bliss-dot" cx="336" cy="224" r="4"/><line class="bliss-line" x1="416" y1="160" x2="416" y2="208"/><circle class="bliss-dot" cx="416" cy="224" r="4"/><line class="bliss-line" x1="448" y1="128" x2="576" y2="128"/><line class="bliss-line" x1="448" y1="128" x2="576" y2="256"/><line class="bliss-line" x1="448" y1="256" x2="576" y2="256"/></g></svg>
