<svg xmlns="http://www.w3.org/2000/svg" preserveAspectRatio="xMinYMid" class="bliss-svg" viewBox="-8 -8 688 336"><style>
.bliss-line,.bliss-disc,.bliss-dot{stroke:#000;stroke-linejoin:round;stroke-linecap:round;stroke-width:8}
.bliss-line{fill:none}
.bliss-disc,.bliss-dot{fill:#000}
.bliss-text{font-family:"Helvetica Neue",Helvetica,Arial,"Liberation Sans",sans-serif;fill:#000}
</style><g><line class="bliss-line" x1="0" y1="192" x2="64" y2="192"/><line class="bliss-line" x1="32" y1="160" x2="64" y2="192"/><line class="bliss-line" x1="32" y1="224" x2="64" y2="192"/><line class="bliss-line" x1="64" y1="128" x2="96" y2="160"/><line class="bliss-line" x1="96" y1="96" x2="96" y2="160"/><line class="bliss-line" x1="96" y1="160" x2="128" y2="128"/><line class="bliss-line" x1="64" y1="256" x2="96" y2="224"/><line class="bliss-line" x1="96" y1="224" x2="96" y2="288"/><line class="bliss-line" x1="96" y1="224" x2="128" y2="256"/><line class="bliss-line" x1="128" y1="192" x2="160" y2="160"/><line class="bliss-line" x1="128" y1="192" x2="160" y2="224"/><line class="bliss-line" x1="128" y1="192" x2="192" y2="192"/><path class="bliss-line" d="M 224,192 A 64,64 0 0,0 352,192"/><line class="bliss-line" x1="256" y1="160" x2="288" y2="128"/><line class="bliss-line" x1="288" y1="128" x2="288" y2="256"/><line class="bliss-line" x1="288" y1="128" x2="320" y2="160"/><line class="bliss-line" x1="384" y1="192" x2="416" y2="192"/><line class="bliss-line" x1="384" y1="192" x2="448" y2="64"/><line class="bliss-line" x1="384" y1="256" x2="448" y2="128"/><line class="bliss-line" x1="384" y1="256" x2="512" y2="256"/><line class="bliss-line" x1="448" y1="64" x2="512" y2="192"/><line class="bliss-line" x1="448" y1="128" x2="512" y2="256"/><line class="bliss-line" x1="480" y1="192" x2="512" y2="192"/><circle class="bliss-line" cx="608" cy="192" r="64"/><line class="bliss-line" x1="576" y1="176" x2="608" y2="144"/><line class="bliss-line" x1="608" y1="144" x2="640" y2="176"/></g></svg>
