<svg xmlns="http://www.w3.org/2000/svg" preserveAspectRatio="xMinYMid" class="bliss-svg" viewBox="-8 -8 304 336"><style>
.bliss-line,.bliss-disc,.bliss-dot{stroke:#000;stroke-linejoin:round;stroke-linecap:round;stroke-width:8}
.bliss-line{fill:none}
.bliss-disc,.bliss-dot{fill:#000}
.bliss-text{font-family:"Helvetica Neue",Helvetica,Arial,"Liberation Sans",sans-serif;fill:#000}
</style><g><path class="bliss-line" d="M 16,192 A 40,40 0 0,0 16,256"/><path class="bliss-line" d="M 16,192 A 40,40 0 0,0 16,128"/><path class="bliss-line" d="M 128,160 A 32,32 0 0,0 64,160"/><path class="bliss-line" d="M 64,160 Q 64,208 128,256"/><path class="bliss-line" d="M 192,160 A 32,32 0 0,0 128,160"/><path class="bliss-line" d="M 128,256 Q 192,208 192,160"/><line class="bliss-line" x1="224" y1="160" x2="256" y2="128"/><line class="bliss-line" x1="256" y1="128" x2="256" y2="256"/><line class="bliss-line" x1="256" y1="128" x2="288" y2="160"/></g></svg>
