<svg xmlns="http://www.w3.org/2000/svg" preserveAspectRatio="xMinYMid" class="bliss-svg" viewBox="-8 -8 240 336"><style>
.bliss-line,.bliss-disc,.bliss-dot{stroke:#000;stroke-linejoin:round;stroke-linecap:round;stroke-width:8}
.bliss-line{fill:none}
.bliss-disc,.bliss-dot{fill:#000}
.bliss-text{font-family:"Helvetica Neue",Helvetica,Arial,"Liberation Sans",sans-serif;fill:#000}
</style><g><circle class="bliss-line" cx="32" cy="192" r="32"/><circle class="bliss-dot" cx="32" cy="192" r="4"/><line class="bliss-line" x1="0" y1="256" x2="64" y2="256"/><line class="bliss-line" x1="96" y1="208" x2="112" y2="192"/><line class="bliss-line" x1="96" y1="256" x2="128" y2="256"/><line class="bliss-line" x1="112" y1="192" x2="112" y2="256"/><circle class="bliss-disc" cx="156" cy="256" r="4"/><path class="bliss-line" d="M 156,268 A 16,16 0 0,0 160,256"/><line class="bliss-line" x1="192" y1="208" x2="192" y2="240"/><path class="bliss-line" d="M 224,208 A 16,16 0 0,0 192,208"/><path class="bliss-line" d="M 192,240 A 16,16 0 0,0 224,240"/><line class="bliss-line" x1="224" y1="208" x2="224" y2="240"/></g></svg>
