<svg xmlns="http://www.w3.org/2000/svg" preserveAspectRatio="xMinYMid" class="bliss-svg" viewBox="-8 -8 464 336"><style>
.bliss-line,.bliss-disc,.bliss-dot{stroke:#000;stroke-linejoin:round;stroke-linecap:round;stroke-width:8}
.bliss-line{fill:none}
.bliss-disc,.bliss-dot{fill:#000}
.bliss-text{font-family:"Helvetica Neue",Helvetica,Arial,"Liberation Sans",sans-serif;fill:#000}
</style><g><line class="bliss-line" x1="0" y1="160" x2="0" y2="224"/><line class="bliss-line" x1="0" y1="160" x2="64" y2="160"/><line class="bliss-line" x1="0" y1="224" x2="64" y2="224"/><circle class="bliss-line" cx="64" cy="224" r="32"/><line class="bliss-line" x1="64" y1="160" x2="64" y2="224"/><line class="bliss-line" x1="96" y1="128" x2="96" y2="224"/><line class="bliss-line" x1="128" y1="160" x2="128" y2="224"/><line class="bliss-line" x1="128" y1="160" x2="256" y2="160"/><line class="bliss-line" x1="128" y1="224" x2="256" y2="224"/><line class="bliss-line" x1="192" y1="160" x2="192" y2="224"/><line class="bliss-line" x1="256" y1="160" x2="256" y2="224"/><line class="bliss-line" x1="288" y1="208" x2="288" y2="240"/><path class="bliss-line" d="M 320,208 A 16,16 0 0,0 288,208"/><path class="bliss-line" d="M 288,240 A 16,16 0 0,0 320,240"/><line class="bliss-line" x1="320" y1="208" x2="320" y2="240"/><circle class="bliss-line" cx="384" cy="224" r="32"/><path class="bliss-line" d="M 432,256 A 40,40 0 0,0 432,192"/></g></svg>
