<svg xmlns="http://www.w3.org/2000/svg" preserveAspectRatio="xMinYMid" class="bliss-svg" viewBox="-8 -8 432 336"><style>
.bliss-line,.bliss-disc,.bliss-dot{stroke:#000;stroke-linejoin:round;stroke-linecap:round;stroke-width:8}
.bliss-line{fill:none}
.bliss-disc,.bliss-dot{fill:#000}
.bliss-text{font-family:"Helvetica Neue",Helvetica,Arial,"Liberation Sans",sans-serif;fill:#000}
</style><g><line class="bliss-line" x1="0" y1="192" x2="0" y2="256"/><line class="bliss-line" x1="0" y1="192" x2="128" y2="192"/><line class="bliss-line" x1="128" y1="192" x2="128" y2="256"/><line class="bliss-line" x1="128" y1="256" x2="192" y2="256"/><circle class="bliss-line" cx="256" cy="224" r="32"/><line class="bliss-line" x1="224" y1="192" x2="416" y2="192"/><line class="bliss-line" x1="233.37258300203" y1="246.62741699797" x2="278.62741699793" y2="201.37258300206997"/><line class="bliss-line" x1="233.37258300203" y1="201.37258300206997" x2="278.62741699793" y2="246.62741699797"/><circle class="bliss-line" cx="320" cy="224" r="32"/><line class="bliss-line" x1="297.37258300203" y1="246.62741699797" x2="342.62741699793" y2="201.37258300206997"/><line class="bliss-line" x1="297.37258300203" y1="201.37258300206997" x2="342.62741699793" y2="246.62741699797"/><circle class="bliss-line" cx="384" cy="224" r="32"/><line class="bliss-line" x1="361.37258300203" y1="246.62741699797" x2="406.62741699793" y2="201.37258300206997"/><line class="bliss-line" x1="361.37258300203" y1="201.37258300206997" x2="406.62741699793" y2="246.62741699797"/><line class="bliss-line" x1="368" y1="176" x2="400" y2="144"/><line class="bliss-line" x1="384" y1="160" x2="416" y2="192"/></g></svg>
