<svg xmlns="http://www.w3.org/2000/svg" preserveAspectRatio="xMinYMid" class="bliss-svg" viewBox="-8 -8 528 336"><style>
.bliss-line,.bliss-disc,.bliss-dot{stroke:#000;stroke-linejoin:round;stroke-linecap:round;stroke-width:8}
.bliss-line{fill:none}
.bliss-disc,.bliss-dot{fill:#000}
.bliss-text{font-family:"Helvetica Neue",Helvetica,Arial,"Liberation Sans",sans-serif;fill:#000}
</style><g><line class="bliss-line" x1="0" y1="256" x2="64" y2="192"/><line class="bliss-line" x1="0" y1="192" x2="64" y2="256"/><line class="bliss-line" x1="96" y1="192" x2="96" y2="256"/><line class="bliss-line" x1="96" y1="192" x2="224" y2="192"/><line class="bliss-line" x1="224" y1="192" x2="224" y2="256"/><line class="bliss-line" x1="224" y1="256" x2="288" y2="256"/><circle class="bliss-line" cx="352" cy="224" r="32"/><line class="bliss-line" x1="320" y1="192" x2="512" y2="192"/><line class="bliss-line" x1="329.37258300203" y1="246.62741699797" x2="374.62741699793" y2="201.37258300206997"/><line class="bliss-line" x1="329.37258300203" y1="201.37258300206997" x2="374.62741699793" y2="246.62741699797"/><circle class="bliss-line" cx="416" cy="224" r="32"/><line class="bliss-line" x1="393.37258300203" y1="246.62741699797" x2="438.62741699793" y2="201.37258300206997"/><line class="bliss-line" x1="393.37258300203" y1="201.37258300206997" x2="438.62741699793" y2="246.62741699797"/><circle class="bliss-line" cx="480" cy="224" r="32"/><line class="bliss-line" x1="457.37258300203" y1="246.62741699797" x2="502.62741699793" y2="201.37258300206997"/><line class="bliss-line" x1="457.37258300203" y1="201.37258300206997" x2="502.62741699793" y2="246.62741699797"/><line class="bliss-line" x1="464" y1="176" x2="496" y2="144"/><line class="bliss-line" x1="480" y1="160" x2="512" y2="192"/></g></svg>
