<svg xmlns="http://www.w3.org/2000/svg" preserveAspectRatio="xMinYMid" class="bliss-svg" viewBox="-8 -8 512 336"><style>
.bliss-line,.bliss-disc,.bliss-dot{stroke:#000;stroke-linejoin:round;stroke-linecap:round;stroke-width:8}
.bliss-line{fill:none}
.bliss-disc,.bliss-dot{fill:#000}
.bliss-text{font-family:"Helvetica Neue",Helvetica,Arial,"Liberation Sans",sans-serif;fill:#000}
</style><g><line class="bliss-line" x1="0" y1="128" x2="0" y2="192"/><line class="bliss-line" x1="0" y1="256" x2="32" y2="192"/><line class="bliss-line" x1="0" y1="192" x2="64" y2="192"/><line class="bliss-line" x1="32" y1="192" x2="64" y2="256"/><line class="bliss-line" x1="64" y1="128" x2="64" y2="256"/><path class="bliss-line" d="M 96,192 A 64,64 0 0,0 224,192"/><line class="bliss-line" x1="96" y1="192" x2="224" y2="192"/><line class="bliss-line" x1="160" y1="128" x2="160" y2="192"/><line class="bliss-line" x1="256" y1="208" x2="272" y2="192"/><line class="bliss-line" x1="256" y1="256" x2="288" y2="256"/><line class="bliss-line" x1="272" y1="192" x2="272" y2="256"/><path class="bliss-line" d="M 384,256 A 40,40 0 0,0 320,256"/><line class="bliss-line" x1="336" y1="256" x2="368" y2="288"/><line class="bliss-line" x1="336" y1="256" x2="400" y2="192"/><line class="bliss-line" x1="368" y1="288" x2="432" y2="224"/><path class="bliss-line" d="M 384,256 A 40,40 0 0,0 448,256"/><line class="bliss-line" x1="400" y1="192" x2="432" y2="224"/><line class="bliss-line" x1="416" y1="208" x2="496" y2="128"/></g></svg>
