<svg xmlns="http://www.w3.org/2000/svg" preserveAspectRatio="xMinYMid" class="bliss-svg" viewBox="-8 -8 368 336"><style>
.bliss-line,.bliss-disc,.bliss-dot{stroke:#000;stroke-linejoin:round;stroke-linecap:round;stroke-width:8}
.bliss-line{fill:none}
.bliss-disc,.bliss-dot{fill:#000}
.bliss-text{font-family:"Helvetica Neue",Helvetica,Arial,"Liberation Sans",sans-serif;fill:#000}
</style><g><path class="bliss-line" d="M 64,288 A 32,32 0 0,0 0,288"/><line class="bliss-line" x1="0" y1="256" x2="192" y2="256"/><path class="bliss-line" d="M 64,288 A 32,32 0 0,0 128,288"/><path class="bliss-line" d="M 192,288 A 32,32 0 0,0 128,288"/><path class="bliss-line" d="M 256,128 A 80,80 0 0,0 256,256"/><path class="bliss-line" d="M 256,256 A 80,80 0 0,0 256,128"/><path class="bliss-line" d="M 320,128 A 80,80 0 0,0 320,256"/><path class="bliss-line" d="M 320,256 A 80,80 0 0,0 320,128"/></g></svg>
