<svg xmlns="http://www.w3.org/2000/svg" preserveAspectRatio="xMinYMid" class="bliss-svg" viewBox="-8 -8 336 336"><style>
.bliss-line,.bliss-disc,.bliss-dot{stroke:#000;stroke-linejoin:round;stroke-linecap:round;stroke-width:8}
.bliss-line{fill:none}
.bliss-disc,.bliss-dot{fill:#000}
.bliss-text{font-family:"Helvetica Neue",Helvetica,Arial,"Liberation Sans",sans-serif;fill:#000}
</style><g><line class="bliss-line" x1="0" y1="208" x2="16" y2="192"/><line class="bliss-line" x1="0" y1="256" x2="32" y2="256"/><line class="bliss-line" x1="16" y1="192" x2="16" y2="256"/><line class="bliss-line" x1="48" y1="208" x2="48" y2="240"/><path class="bliss-line" d="M 80,208 A 16,16 0 0,0 48,208"/><path class="bliss-line" d="M 48,240 A 16,16 0 0,0 80,240"/><line class="bliss-line" x1="80" y1="208" x2="80" y2="240"/><line class="bliss-line" x1="96" y1="208" x2="96" y2="240"/><path class="bliss-line" d="M 128,208 A 16,16 0 0,0 96,208"/><path class="bliss-line" d="M 96,240 A 16,16 0 0,0 128,240"/><line class="bliss-line" x1="128" y1="208" x2="128" y2="240"/><circle class="bliss-line" cx="224" cy="192" r="64"/><line class="bliss-line" x1="256" y1="160" x2="288" y2="192"/><line class="bliss-line" x1="288" y1="192" x2="320" y2="160"/></g></svg>
