<svg xmlns="http://www.w3.org/2000/svg" preserveAspectRatio="xMinYMid" class="bliss-svg" viewBox="-8 -8 496 336"><style>
.bliss-line,.bliss-disc,.bliss-dot{stroke:#000;stroke-linejoin:round;stroke-linecap:round;stroke-width:8}
.bliss-line{fill:none}
.bliss-disc,.bliss-dot{fill:#000}
.bliss-text{font-family:"Helvetica Neue",Helvetica,Arial,"Liberation Sans",sans-serif;fill:#000}
</style><g><path class="bliss-line" d="M 16,192 A 40,40 0 0,0 16,256"/><line class="bliss-line" x1="16" y1="192" x2="144" y2="192"/><line class="bliss-line" x1="16" y1="256" x2="144" y2="256"/><path class="bliss-line" d="M 144,256 A 40,40 0 0,0 144,192"/><circle class="bliss-line" cx="256" cy="192" r="64"/><line class="bliss-line" x1="192" y1="256" x2="320" y2="256"/><path class="bliss-line" d="M 416,160 A 32,32 0 0,0 352,160"/><path class="bliss-line" d="M 352,160 Q 352,208 416,256"/><line class="bliss-line" x1="352" y1="256" x2="480" y2="256"/><path class="bliss-line" d="M 480,160 A 32,32 0 0,0 416,160"/><path class="bliss-line" d="M 416,256 Q 480,208 480,160"/></g></svg>
