<svg xmlns="http://www.w3.org/2000/svg" preserveAspectRatio="xMinYMid" class="bliss-svg" viewBox="-8 -8 464 336"><style>
.bliss-line,.bliss-disc,.bliss-dot{stroke:#000;stroke-linejoin:round;stroke-linecap:round;stroke-width:8}
.bliss-line{fill:none}
.bliss-disc,.bliss-dot{fill:#000}
.bliss-text{font-family:"Helvetica Neue",Helvetica,Arial,"Liberation Sans",sans-serif;fill:#000}
</style><g><line class="bliss-line" x1="0" y1="160" x2="32" y2="128"/><line class="bliss-line" x1="32" y1="128" x2="32" y2="256"/><line class="bliss-line" x1="32" y1="256" x2="64" y2="224"/><line class="bliss-line" x1="96" y1="256" x2="160" y2="192"/><line class="bliss-line" x1="96" y1="192" x2="160" y2="256"/><circle class="bliss-line" cx="224" cy="160" r="32"/><circle class="bliss-line" cx="224" cy="224" r="32"/><line class="bliss-line" x1="224" y1="128" x2="224" y2="256"/><line class="bliss-line" x1="208" y1="64" x2="224" y2="96"/><line class="bliss-line" x1="224" y1="96" x2="240" y2="64"/><line class="bliss-line" x1="288" y1="160" x2="320" y2="128"/><line class="bliss-line" x1="320" y1="128" x2="352" y2="160"/><line class="bliss-line" x1="288" y1="224" x2="320" y2="256"/><line class="bliss-line" x1="320" y1="256" x2="352" y2="224"/><line class="bliss-line" x1="384" y1="160" x2="384" y2="224"/><line class="bliss-line" x1="384" y1="160" x2="448" y2="160"/><line class="bliss-line" x1="384" y1="224" x2="448" y2="224"/><line class="bliss-line" x1="448" y1="160" x2="448" y2="224"/></g></svg>
