<svg xmlns="http://www.w3.org/2000/svg" preserveAspectRatio="xMinYMid" class="bliss-svg" viewBox="-8 -8 432 336"><style>
.bliss-line,.bliss-disc,.bliss-dot{stroke:#000;stroke-linejoin:round;stroke-linecap:round;stroke-width:8}
.bliss-line{fill:none}
.bliss-disc,.bliss-dot{fill:#000}
.bliss-text{font-family:"Helvetica Neue",Helvetica,Arial,"Liberation Sans",sans-serif;fill:#000}
</style><g><line class="bliss-line" x1="0" y1="192" x2="128" y2="192"/><line class="bliss-line" x1="64" y1="128" x2="64" y2="256"/><line class="bliss-line" x1="48" y1="64" x2="48" y2="96"/><line class="bliss-line" x1="48" y1="64" x2="80" y2="64"/><line class="bliss-line" x1="48" y1="96" x2="80" y2="96"/><line class="bliss-line" x1="80" y1="64" x2="80" y2="96"/><circle class="bliss-dot" cx="128" cy="256" r="4"/><circle class="bliss-dot" cx="192" cy="192" r="4"/><circle class="bliss-dot" cx="192" cy="256" r="4"/><path class="bliss-line" d="M 256,128 A 80,80 0 0,0 256,256"/><circle class="bliss-line" cx="272" cy="192" r="32"/><path class="bliss-line" d="M 288,256 A 80,80 0 0,0 288,128"/><line class="bliss-line" x1="352" y1="160" x2="384" y2="128"/><line class="bliss-line" x1="384" y1="128" x2="384" y2="256"/><line class="bliss-line" x1="384" y1="128" x2="416" y2="160"/></g></svg>
