<svg xmlns="http://www.w3.org/2000/svg" preserveAspectRatio="xMinYMid" class="bliss-svg" viewBox="-8 -8 464 336"><style>
.bliss-line,.bliss-disc,.bliss-dot{stroke:#000;stroke-linejoin:round;stroke-linecap:round;stroke-width:8}
.bliss-line{fill:none}
.bliss-disc,.bliss-dot{fill:#000}
.bliss-text{font-family:"Helvetica Neue",Helvetica,Arial,"Liberation Sans",sans-serif;fill:#000}
</style><g><path class="bliss-line" d="M 128,192 A 64,64 0 0,0 0,192"/><line class="bliss-line" x1="0" y1="256" x2="64" y2="192"/><line class="bliss-line" x1="0" y1="256" x2="128" y2="256"/><line class="bliss-line" x1="64" y1="192" x2="128" y2="256"/><circle class="bliss-line" cx="176" cy="224" r="16"/><line class="bliss-line" x1="176" y1="160" x2="176" y2="192"/><line class="bliss-line" x1="224" y1="256" x2="256" y2="192"/><line class="bliss-line" x1="256" y1="192" x2="288" y2="256"/><path class="bliss-line" d="M 384,160 A 32,32 0 0,0 320,160"/><path class="bliss-line" d="M 320,160 Q 320,208 384,256"/><path class="bliss-line" d="M 448,160 A 32,32 0 0,0 384,160"/><path class="bliss-line" d="M 384,256 Q 448,208 448,160"/></g></svg>
