<svg xmlns="http://www.w3.org/2000/svg" preserveAspectRatio="xMinYMid" class="bliss-svg" viewBox="-8 -8 400 336"><style>
.bliss-line,.bliss-disc,.bliss-dot{stroke:#000;stroke-linejoin:round;stroke-linecap:round;stroke-width:8}
.bliss-line{fill:none}
.bliss-disc,.bliss-dot{fill:#000}
.bliss-text{font-family:"Helvetica Neue",Helvetica,Arial,"Liberation Sans",sans-serif;fill:#000}
</style><g><line class="bliss-line" x1="0" y1="128" x2="0" y2="256"/><path class="bliss-line" d="M 64,128 A 40,40 0 0,0 0,128"/><path class="bliss-line" d="M 0,128 A 40,40 0 0,0 64,128"/><path class="bliss-line" d="M 0,256 A 40,40 0 0,0 64,256"/><line class="bliss-line" x1="64" y1="128" x2="64" y2="256"/><circle class="bliss-line" cx="128" cy="224" r="32"/><path class="bliss-line" d="M 176,256 A 40,40 0 0,0 176,192"/><line class="bliss-line" x1="224" y1="256" x2="288" y2="128"/><circle class="bliss-line" cx="256" cy="192" r="32"/><line class="bliss-line" x1="224" y1="256" x2="288" y2="256"/><line class="bliss-line" x1="320" y1="160" x2="352" y2="128"/><line class="bliss-line" x1="352" y1="128" x2="352" y2="256"/><line class="bliss-line" x1="352" y1="128" x2="384" y2="160"/></g></svg>
