<svg xmlns="http://www.w3.org/2000/svg" preserveAspectRatio="xMinYMid" class="bliss-svg" viewBox="-8 -8 464 336"><style>
.bliss-line,.bliss-disc,.bliss-dot{stroke:#000;stroke-linejoin:round;stroke-linecap:round;stroke-width:8}
.bliss-line{fill:none}
.bliss-disc,.bliss-dot{fill:#000}
.bliss-text{font-family:"Helvetica Neue",Helvetica,Arial,"Liberation Sans",sans-serif;fill:#000}
</style><g><circle class="bliss-line" cx="64" cy="192" r="64"/><circle class="bliss-line" cx="64" cy="192" r="16"/><line class="bliss-line" x1="64" y1="256" x2="96" y2="224"/><line class="bliss-line" x1="64" y1="256" x2="96" y2="288"/><circle class="bliss-line" cx="224" cy="192" r="64"/><line class="bliss-line" x1="224" y1="128" x2="224" y2="256"/><path class="bliss-line" d="M 352,128 A 32,32 0 0,0 352,192"/><path class="bliss-line" d="M 320,160 A 32,32 0 0,0 384,160"/><path class="bliss-line" d="M 384,160 A 32,32 0 0,0 384,224"/><path class="bliss-line" d="M 352,192 A 32,32 0 0,0 416,192"/><path class="bliss-line" d="M 416,192 A 32,32 0 0,0 416,256"/><path class="bliss-line" d="M 384,224 A 32,32 0 0,0 448,224"/></g></svg>
