<svg xmlns="http://www.w3.org/2000/svg" preserveAspectRatio="xMinYMid" class="bliss-svg" viewBox="-8 -8 400 336"><style>
.bliss-line,.bliss-disc,.bliss-dot{stroke:#000;stroke-linejoin:round;stroke-linecap:round;stroke-width:8}
.bliss-line{fill:none}
.bliss-disc,.bliss-dot{fill:#000}
.bliss-text{font-family:"Helvetica Neue",Helvetica,Arial,"Liberation Sans",sans-serif;fill:#000}
</style><g><circle class="bliss-line" cx="64" cy="192" r="64"/><path class="bliss-line" d="M 96,192 A 40,40 0 0,0 32,192"/><path class="bliss-line" d="M 32,192 A 40,40 0 0,0 96,192"/><path class="bliss-line" d="M 176,192 A 40,40 0 0,0 176,256"/><path class="bliss-line" d="M 176,192 A 40,40 0 0,0 176,128"/><path class="bliss-line" d="M 288,192 A 40,40 0 0,0 224,192"/><path class="bliss-line" d="M 288,192 A 40,40 0 0,0 352,192"/><line class="bliss-line" x1="384" y1="160" x2="384" y2="208"/><circle class="bliss-dot" cx="384" cy="224" r="4"/></g></svg>
