<svg xmlns="http://www.w3.org/2000/svg" preserveAspectRatio="xMinYMid" class="bliss-svg" viewBox="-8 -8 432 336"><style>
.bliss-line,.bliss-disc,.bliss-dot{stroke:#000;stroke-linejoin:round;stroke-linecap:round;stroke-width:8}
.bliss-line{fill:none}
.bliss-disc,.bliss-dot{fill:#000}
.bliss-text{font-family:"Helvetica Neue",Helvetica,Arial,"Liberation Sans",sans-serif;fill:#000}
</style><g><circle class="bliss-line" cx="32" cy="160" r="32"/><line class="bliss-line" x1="0" y1="256" x2="64" y2="192"/><line class="bliss-line" x1="0" y1="192" x2="64" y2="256"/><path class="bliss-line" d="M 128,128 A 80,80 0 0,0 128,256"/><line class="bliss-line" x1="128" y1="128" x2="192" y2="128"/><line class="bliss-line" x1="128" y1="256" x2="192" y2="256"/><circle class="bliss-dot" cx="160" cy="192" r="4"/><path class="bliss-line" d="M 192,256 A 80,80 0 0,0 192,128"/><line class="bliss-line" x1="256" y1="256" x2="384" y2="128"/><line class="bliss-line" x1="352" y1="192" x2="352" y2="256"/><line class="bliss-line" x1="352" y1="192" x2="416" y2="192"/><line class="bliss-line" x1="352" y1="256" x2="416" y2="256"/><line class="bliss-line" x1="384" y1="128" x2="384" y2="192"/><line class="bliss-line" x1="416" y1="192" x2="416" y2="256"/></g></svg>
