<svg xmlns="http://www.w3.org/2000/svg" preserveAspectRatio="xMinYMid" class="bliss-svg" viewBox="-8 -8 496 336"><style>
.bliss-line,.bliss-disc,.bliss-dot{stroke:#000;stroke-linejoin:round;stroke-linecap:round;stroke-width:8}
.bliss-line{fill:none}
.bliss-disc,.bliss-dot{fill:#000}
.bliss-text{font-family:"Helvetica Neue",Helvetica,Arial,"Liberation Sans",sans-serif;fill:#000}
</style><g><circle class="bliss-line" cx="32" cy="192" r="32"/><path class="bliss-line" d="M 96,160 A 32,32 0 0,0 32,160"/><path class="bliss-line" d="M 32,256 Q 96,208 96,160"/><circle class="bliss-line" cx="160" cy="160" r="32"/><line class="bliss-line" x1="160" y1="192" x2="160" y2="256"/><line class="bliss-line" x1="224" y1="192" x2="288" y2="192"/><path class="bliss-line" d="M 352,160 A 32,32 0 0,0 288,160"/><path class="bliss-line" d="M 288,160 Q 288,208 352,256"/><path class="bliss-line" d="M 416,160 A 32,32 0 0,0 352,160"/><path class="bliss-line" d="M 352,256 Q 416,208 416,160"/><line class="bliss-line" x1="352" y1="192" x2="480" y2="192"/><line class="bliss-line" x1="448" y1="160" x2="480" y2="192"/><line class="bliss-line" x1="448" y1="224" x2="480" y2="192"/></g></svg>
