<svg xmlns="http://www.w3.org/2000/svg" preserveAspectRatio="xMinYMid" class="bliss-svg" viewBox="-8 -8 528 336"><style>
.bliss-line,.bliss-disc,.bliss-dot{stroke:#000;stroke-linejoin:round;stroke-linecap:round;stroke-width:8}
.bliss-line{fill:none}
.bliss-disc,.bliss-dot{fill:#000}
.bliss-text{font-family:"Helvetica Neue",Helvetica,Arial,"Liberation Sans",sans-serif;fill:#000}
</style><g><line class="bliss-line" x1="0" y1="256" x2="128" y2="256"/><path class="bliss-line" d="M 96,256 A 80,80 0 0,0 64,192"/><path class="bliss-line" d="M 128,256 A 64,64 0 0,0 64,192"/><circle class="bliss-dot" cx="160" cy="192" r="4"/><line class="bliss-line" x1="192" y1="128" x2="192" y2="256"/><circle class="bliss-line" cx="288" cy="192" r="64"/><line class="bliss-line" x1="224" y1="256" x2="352" y2="256"/><path class="bliss-line" d="M 448,160 A 32,32 0 0,0 384,160"/><path class="bliss-line" d="M 384,160 Q 384,208 448,256"/><line class="bliss-line" x1="384" y1="256" x2="512" y2="256"/><path class="bliss-line" d="M 512,160 A 32,32 0 0,0 448,160"/><path class="bliss-line" d="M 448,256 Q 512,208 512,160"/></g></svg>
