<svg xmlns="http://www.w3.org/2000/svg" preserveAspectRatio="xMinYMid" class="bliss-svg" viewBox="-8 -8 688 336"><style>
.bliss-line,.bliss-disc,.bliss-dot{stroke:#000;stroke-linejoin:round;stroke-linecap:round;stroke-width:8}
.bliss-line{fill:none}
.bliss-disc,.bliss-dot{fill:#000}
.bliss-text{font-family:"Helvetica Neue",Helvetica,Arial,"Liberation Sans",sans-serif;fill:#000}
</style><g><line class="bliss-line" x1="0" y1="256" x2="256" y2="256"/><line class="bliss-line" x1="128" y1="128" x2="256" y2="128"/><line class="bliss-line" x1="256" y1="128" x2="256" y2="256"/><path class="bliss-line" d="M 416,192 A 64,64 0 0,0 288,192"/><line class="bliss-line" x1="288" y1="256" x2="352" y2="192"/><line class="bliss-line" x1="288" y1="256" x2="416" y2="256"/><line class="bliss-line" x1="352" y1="192" x2="416" y2="256"/><path class="bliss-line" d="M 448,192 A 40,40 0 0,0 512,192"/><path class="bliss-line" d="M 576,192 A 40,40 0 0,0 512,192"/><circle class="bliss-line" cx="608" cy="192" r="64"/><path class="bliss-line" d="M 640,192 A 40,40 0 0,0 576,192"/><path class="bliss-line" d="M 576,192 A 40,40 0 0,0 640,192"/></g></svg>
