<svg xmlns="http://www.w3.org/2000/svg" preserveAspectRatio="xMinYMid" class="bliss-svg" viewBox="-8 -8 240 336"><style>
.bliss-line,.bliss-disc,.bliss-dot{stroke:#000;stroke-linejoin:round;stroke-linecap:round;stroke-width:8}
.bliss-line{fill:none}
.bliss-disc,.bliss-dot{fill:#000}
.bliss-text{font-family:"Helvetica Neue",Helvetica,Arial,"Liberation Sans",sans-serif;fill:#000}
</style><g><line class="bliss-line" x1="0" y1="128" x2="64" y2="128"/><line class="bliss-line" x1="0" y1="256" x2="64" y2="256"/><line class="bliss-line" x1="0" y1="192" x2="64" y2="192"/><line class="bliss-line" x1="32" y1="128" x2="32" y2="256"/><line class="bliss-line" x1="16" y1="64" x2="16" y2="96"/><line class="bliss-line" x1="16" y1="64" x2="48" y2="64"/><line class="bliss-line" x1="16" y1="96" x2="48" y2="96"/><line class="bliss-line" x1="48" y1="64" x2="48" y2="96"/><path class="bliss-line" d="M 160,192 A 64,64 0 0,0 96,128"/><circle class="bliss-line" cx="160" cy="224" r="32"/><line class="bliss-line" x1="137.37258300203" y1="246.62741699797" x2="182.62741699793003" y2="201.37258300206997"/><line class="bliss-line" x1="137.37258300203" y1="201.37258300206997" x2="182.62741699793003" y2="246.62741699797"/><path class="bliss-line" d="M 224,128 A 64,64 0 0,0 160,192"/></g></svg>
