<svg xmlns="http://www.w3.org/2000/svg" preserveAspectRatio="xMinYMid" class="bliss-svg" viewBox="-8 -8 336 336"><style>
.bliss-line,.bliss-disc,.bliss-dot{stroke:#000;stroke-linejoin:round;stroke-linecap:round;stroke-width:8}
.bliss-line{fill:none}
.bliss-disc,.bliss-dot{fill:#000}
.bliss-text{font-family:"Helvetica Neue",Helvetica,Arial,"Liberation Sans",sans-serif;fill:#000}
</style><g><line class="bliss-line" x1="0" y1="256" x2="128" y2="256"/><circle class="bliss-line" cx="64" cy="288" r="32"/><path class="bliss-line" d="M 128,192 A 64,64 0 0,0 64,256"/><line class="bliss-line" x1="160" y1="128" x2="160" y2="256"/><line class="bliss-line" x1="144" y1="64" x2="144" y2="96"/><line class="bliss-line" x1="144" y1="64" x2="176" y2="64"/><line class="bliss-line" x1="144" y1="96" x2="176" y2="96"/><line class="bliss-line" x1="176" y1="64" x2="176" y2="96"/><path class="bliss-line" d="M 256,192 A 40,40 0 0,0 192,192"/><path class="bliss-line" d="M 256,192 A 40,40 0 0,0 320,192"/><path class="bliss-line" d="M 256,256 A 40,40 0 0,0 192,256"/><path class="bliss-line" d="M 256,256 A 40,40 0 0,0 320,256"/></g></svg>
