<svg xmlns="http://www.w3.org/2000/svg" preserveAspectRatio="xMinYMid" class="bliss-svg" viewBox="-8 -8 448 336"><style>
.bliss-line,.bliss-disc,.bliss-dot{stroke:#000;stroke-linejoin:round;stroke-linecap:round;stroke-width:8}
.bliss-line{fill:none}
.bliss-disc,.bliss-dot{fill:#000}
.bliss-text{font-family:"Helvetica Neue",Helvetica,Arial,"Liberation Sans",sans-serif;fill:#000}
</style><g><line class="bliss-line" x1="0" y1="256" x2="128" y2="256"/><circle class="bliss-line" cx="64" cy="288" r="32"/><path class="bliss-line" d="M 128,192 A 64,64 0 0,0 64,256"/><line class="bliss-line" x1="48" y1="96" x2="80" y2="64"/><line class="bliss-line" x1="48" y1="64" x2="80" y2="96"/><circle class="bliss-line" cx="192" cy="192" r="32"/><circle class="bliss-dot" cx="192" cy="192" r="4"/><line class="bliss-line" x1="160" y1="256" x2="224" y2="256"/><path class="bliss-line" d="M 320,192 A 40,40 0 0,0 256,192"/><line class="bliss-line" x1="304" y1="272" x2="336" y2="240"/><line class="bliss-line" x1="304" y1="240" x2="336" y2="272"/><line class="bliss-line" x1="320" y1="128" x2="320" y2="288"/><path class="bliss-line" d="M 320,192 A 40,40 0 0,0 384,192"/><line class="bliss-line" x1="416" y1="128" x2="416" y2="256"/><line class="bliss-line" x1="400" y1="64" x2="400" y2="96"/><line class="bliss-line" x1="400" y1="64" x2="432" y2="64"/><line class="bliss-line" x1="400" y1="96" x2="432" y2="96"/><line class="bliss-line" x1="432" y1="64" x2="432" y2="96"/></g></svg>
