<svg xmlns="http://www.w3.org/2000/svg" preserveAspectRatio="xMinYMid" class="bliss-svg" viewBox="-8 -8 560 336"><style>
.bliss-line,.bliss-disc,.bliss-dot{stroke:#000;stroke-linejoin:round;stroke-linecap:round;stroke-width:8}
.bliss-line{fill:none}
.bliss-disc,.bliss-dot{fill:#000}
.bliss-text{font-family:"Helvetica Neue",Helvetica,Arial,"Liberation Sans",sans-serif;fill:#000}
</style><g><line class="bliss-line" x1="0" y1="192" x2="64" y2="192"/><circle class="bliss-dot" cx="32" cy="160" r="4"/><circle class="bliss-dot" cx="32" cy="224" r="4"/><circle class="bliss-line" cx="160" cy="192" r="64"/><circle class="bliss-line" cx="160" cy="192" r="16"/><line class="bliss-line" x1="160" y1="256" x2="192" y2="224"/><line class="bliss-line" x1="160" y1="256" x2="192" y2="288"/><circle class="bliss-line" cx="320" cy="192" r="64"/><line class="bliss-line" x1="320" y1="128" x2="320" y2="256"/><path class="bliss-line" d="M 448,128 A 32,32 0 0,0 448,192"/><path class="bliss-line" d="M 416,160 A 32,32 0 0,0 480,160"/><path class="bliss-line" d="M 480,160 A 32,32 0 0,0 480,224"/><path class="bliss-line" d="M 448,192 A 32,32 0 0,0 512,192"/><path class="bliss-line" d="M 512,192 A 32,32 0 0,0 512,256"/><path class="bliss-line" d="M 480,224 A 32,32 0 0,0 544,224"/></g></svg>
