<svg xmlns="http://www.w3.org/2000/svg" preserveAspectRatio="xMinYMid" class="bliss-svg" viewBox="-8 -8 416 336"><style>
.bliss-line,.bliss-disc,.bliss-dot{stroke:#000;stroke-linejoin:round;stroke-linecap:round;stroke-width:8}
.bliss-line{fill:none}
.bliss-disc,.bliss-dot{fill:#000}
.bliss-text{font-family:"Helvetica Neue",Helvetica,Arial,"Liberation Sans",sans-serif;fill:#000}
</style><g><line class="bliss-line" x1="0" y1="160" x2="0" y2="224"/><line class="bliss-line" x1="0" y1="160" x2="64" y2="160"/><line class="bliss-line" x1="0" y1="224" x2="64" y2="224"/><line class="bliss-line" x1="64" y1="160" x2="64" y2="224"/><circle class="bliss-line" cx="160" cy="192" r="64"/><path class="bliss-line" d="M 128,96 A 20,20 0 0,0 128,128"/><line class="bliss-line" x1="128" y1="224" x2="192" y2="224"/><path class="bliss-line" d="M 160,96 A 20,20 0 0,0 160,128"/><line class="bliss-line" x1="160" y1="160" x2="160" y2="224"/><path class="bliss-line" d="M 192,96 A 20,20 0 0,0 192,128"/><line class="bliss-line" x1="208" y1="96" x2="240" y2="64"/><line class="bliss-line" x1="208" y1="96" x2="240" y2="128"/><circle class="bliss-line" cx="336" cy="192" r="64"/><circle class="bliss-line" cx="336" cy="192" r="32"/></g></svg>
