<svg xmlns="http://www.w3.org/2000/svg" preserveAspectRatio="xMinYMid" class="bliss-svg" viewBox="-8 -8 296 336"><style>
.bliss-line,.bliss-disc,.bliss-dot{stroke:#000;stroke-linejoin:round;stroke-linecap:round;stroke-width:8}
.bliss-line{fill:none}
.bliss-disc,.bliss-dot{fill:#000}
.bliss-text{font-family:"Helvetica Neue",Helvetica,Arial,"Liberation Sans",sans-serif;fill:#000}
</style><g><path class="bliss-line" d="M 16,224 A 16,16 0 1,0 0,208"/><path class="bliss-line" d="M 0,240 A 16,16 0 1,0 16,224"/><line class="bliss-line" x1="48" y1="208" x2="48" y2="240"/><path class="bliss-line" d="M 80,208 A 16,16 0 0,0 48,208"/><path class="bliss-line" d="M 48,240 A 16,16 0 0,0 80,240"/><line class="bliss-line" x1="80" y1="208" x2="80" y2="240"/><circle class="bliss-line" cx="176" cy="192" r="64"/><line class="bliss-line" x1="176" y1="128" x2="176" y2="192"/><line class="bliss-line" x1="176" y1="192" x2="240" y2="192"/><circle class="bliss-disc" cx="276" cy="128" r="4"/><path class="bliss-line" d="M 276,140 A 16,16 0 0,0 280,128"/></g></svg>
