<svg xmlns="http://www.w3.org/2000/svg" preserveAspectRatio="xMinYMid" class="bliss-svg" viewBox="-8 -8 336 336"><style>
.bliss-line,.bliss-disc,.bliss-dot{stroke:#000;stroke-linejoin:round;stroke-linecap:round;stroke-width:8}
.bliss-line{fill:none}
.bliss-disc,.bliss-dot{fill:#000}
.bliss-text{font-family:"Helvetica Neue",Helvetica,Arial,"Liberation Sans",sans-serif;fill:#000}
</style><g><path class="bliss-line" d="M 64,160 A 32,32 0 0,0 0,160"/><path class="bliss-line" d="M 0,160 Q 0,208 64,256"/><path class="bliss-line" d="M 128,160 A 32,32 0 0,0 64,160"/><path class="bliss-line" d="M 64,256 Q 128,208 128,160"/><line class="bliss-line" x1="48" y1="64" x2="64" y2="96"/><line class="bliss-line" x1="64" y1="96" x2="80" y2="64"/><line class="bliss-line" x1="160" y1="160" x2="192" y2="128"/><line class="bliss-line" x1="192" y1="128" x2="192" y2="256"/><line class="bliss-line" x1="192" y1="128" x2="224" y2="160"/><path class="bliss-line" d="M 288,128 A 80,80 0 0,0 288,256"/><path class="bliss-line" d="M 304,192 A 16,16 0 1,0 288,176"/><line class="bliss-line" x1="304" y1="192" x2="304" y2="208"/><circle class="bliss-dot" cx="304" cy="224" r="4"/></g></svg>
