<svg xmlns="http://www.w3.org/2000/svg" preserveAspectRatio="xMinYMid" class="bliss-svg" viewBox="-8 -8 496 336"><style>
.bliss-line,.bliss-disc,.bliss-dot{stroke:#000;stroke-linejoin:round;stroke-linecap:round;stroke-width:8}
.bliss-line{fill:none}
.bliss-disc,.bliss-dot{fill:#000}
.bliss-text{font-family:"Helvetica Neue",Helvetica,Arial,"Liberation Sans",sans-serif;fill:#000}
</style><g><path class="bliss-line" d="M 32,208 A 16,16 0 0,0 0,208"/><line class="bliss-line" x1="0" y1="256" x2="32" y2="208"/><line class="bliss-line" x1="0" y1="256" x2="32" y2="256"/><path class="bliss-line" d="M 96,192 A 64,64 0 0,0 32,128"/><line class="bliss-line" x1="80" y1="224" x2="96" y2="192"/><line class="bliss-line" x1="96" y1="192" x2="112" y2="224"/><path class="bliss-line" d="M 160,128 A 64,64 0 0,0 96,192"/><line class="bliss-line" x1="192" y1="192" x2="224" y2="192"/><line class="bliss-line" x1="192" y1="192" x2="256" y2="64"/><line class="bliss-line" x1="192" y1="256" x2="256" y2="128"/><line class="bliss-line" x1="192" y1="256" x2="320" y2="256"/><line class="bliss-line" x1="256" y1="64" x2="320" y2="192"/><line class="bliss-line" x1="256" y1="128" x2="320" y2="256"/><line class="bliss-line" x1="288" y1="192" x2="320" y2="192"/><circle class="bliss-line" cx="416" cy="192" r="64"/><line class="bliss-line" x1="384" y1="176" x2="416" y2="144"/><line class="bliss-line" x1="416" y1="144" x2="448" y2="176"/></g></svg>
