<svg xmlns="http://www.w3.org/2000/svg" preserveAspectRatio="xMinYMid" class="bliss-svg" viewBox="-8 -8 336 336"><style>
.bliss-line,.bliss-disc,.bliss-dot{stroke:#000;stroke-linejoin:round;stroke-linecap:round;stroke-width:8}
.bliss-line{fill:none}
.bliss-disc,.bliss-dot{fill:#000}
.bliss-text{font-family:"Helvetica Neue",Helvetica,Arial,"Liberation Sans",sans-serif;fill:#000}
</style><g><circle class="bliss-line" cx="32" cy="192" r="32"/><path class="bliss-line" d="M 96,160 A 32,32 0 0,0 32,160"/><path class="bliss-line" d="M 32,256 Q 96,208 96,160"/><path class="bliss-line" d="M 192,192 A 40,40 0 0,0 128,192"/><line class="bliss-line" x1="160" y1="160" x2="160" y2="224"/><line class="bliss-line" x1="160" y1="160" x2="224" y2="160"/><line class="bliss-line" x1="160" y1="224" x2="224" y2="224"/><path class="bliss-line" d="M 192,192 A 40,40 0 0,0 256,192"/><line class="bliss-line" x1="224" y1="160" x2="224" y2="224"/><path class="bliss-line" d="M 304,192 A 40,40 0 0,0 304,256"/><path class="bliss-line" d="M 304,192 A 40,40 0 0,0 304,128"/></g></svg>
