<svg xmlns="http://www.w3.org/2000/svg" preserveAspectRatio="xMinYMid" class="bliss-svg" viewBox="-8 -8 528 336"><style>
.bliss-line,.bliss-disc,.bliss-dot{stroke:#000;stroke-linejoin:round;stroke-linecap:round;stroke-width:8}
.bliss-line{fill:none}
.bliss-disc,.bliss-dot{fill:#000}
.bliss-text{font-family:"Helvetica Neue",Helvetica,Arial,"Liberation Sans",sans-serif;fill:#000}
</style><g><path class="bliss-line" d="M 64,160 A 32,32 0 0,0 0,160"/><path class="bliss-line" d="M 0,160 Q 0,208 64,256"/><path class="bliss-line" d="M 128,160 A 32,32 0 0,0 64,160"/><path class="bliss-line" d="M 64,256 Q 128,208 128,160"/><line class="bliss-line" x1="128" y1="256" x2="192" y2="192"/><line class="bliss-line" x1="192" y1="192" x2="256" y2="256"/><line class="bliss-line" x1="256" y1="192" x2="256" y2="256"/><path class="bliss-line" d="M 320,128 A 80,80 0 0,0 320,256"/><line class="bliss-line" x1="320" y1="128" x2="384" y2="128"/><line class="bliss-line" x1="320" y1="256" x2="384" y2="256"/><circle class="bliss-dot" cx="352" cy="192" r="4"/><path class="bliss-line" d="M 384,256 A 80,80 0 0,0 384,128"/><circle class="bliss-line" cx="480" cy="192" r="32"/><line class="bliss-line" x1="448" y1="256" x2="512" y2="256"/></g></svg>
