<svg xmlns="http://www.w3.org/2000/svg" preserveAspectRatio="xMinYMid" class="bliss-svg" viewBox="-8 -8 400 336"><style>
.bliss-line,.bliss-disc,.bliss-dot{stroke:#000;stroke-linejoin:round;stroke-linecap:round;stroke-width:8}
.bliss-line{fill:none}
.bliss-disc,.bliss-dot{fill:#000}
.bliss-text{font-family:"Helvetica Neue",Helvetica,Arial,"Liberation Sans",sans-serif;fill:#000}
</style><g><line class="bliss-line" x1="0" y1="128" x2="0" y2="256"/><line class="bliss-line" x1="0" y1="128" x2="64" y2="192"/><line class="bliss-line" x1="0" y1="256" x2="64" y2="192"/><path class="bliss-line" d="M 160,160 A 32,32 0 0,0 96,160"/><path class="bliss-line" d="M 96,160 Q 96,208 160,256"/><path class="bliss-line" d="M 224,160 A 32,32 0 0,0 160,160"/><path class="bliss-line" d="M 160,256 Q 224,208 224,160"/><path class="bliss-line" d="M 272,192 A 40,40 0 0,0 272,256"/><path class="bliss-line" d="M 272,192 A 40,40 0 0,0 272,128"/><line class="bliss-line" x1="320" y1="256" x2="352" y2="192"/><line class="bliss-line" x1="352" y1="192" x2="384" y2="256"/></g></svg>
