<svg xmlns="http://www.w3.org/2000/svg" preserveAspectRatio="xMinYMid" class="bliss-svg" viewBox="-8 -8 624 336"><style>
.bliss-line,.bliss-disc,.bliss-dot{stroke:#000;stroke-linejoin:round;stroke-linecap:round;stroke-width:8}
.bliss-line{fill:none}
.bliss-disc,.bliss-dot{fill:#000}
.bliss-text{font-family:"Helvetica Neue",Helvetica,Arial,"Liberation Sans",sans-serif;fill:#000}
</style><g><line class="bliss-line" x1="0" y1="128" x2="0" y2="192"/><line class="bliss-line" x1="0" y1="256" x2="32" y2="192"/><line class="bliss-line" x1="0" y1="192" x2="64" y2="192"/><line class="bliss-line" x1="32" y1="192" x2="64" y2="256"/><line class="bliss-line" x1="64" y1="128" x2="64" y2="256"/><line class="bliss-line" x1="96" y1="192" x2="96" y2="256"/><line class="bliss-line" x1="96" y1="256" x2="224" y2="128"/><line class="bliss-line" x1="96" y1="128" x2="224" y2="256"/><line class="bliss-line" x1="224" y1="192" x2="224" y2="256"/><circle class="bliss-line" cx="320" cy="192" r="64"/><line class="bliss-line" x1="336" y1="160" x2="368" y2="192"/><line class="bliss-line" x1="336" y1="224" x2="368" y2="192"/><path class="bliss-line" d="M 544,192 A 64,64 0 0,0 416,192"/><line class="bliss-line" x1="512" y1="160" x2="544" y2="192"/><line class="bliss-line" x1="544" y1="192" x2="576" y2="160"/><line class="bliss-line" x1="448" y1="224" x2="480" y2="192"/><line class="bliss-line" x1="480" y1="192" x2="512" y2="224"/><path class="bliss-line" d="M 480,192 A 64,64 0 0,0 608,192"/></g></svg>
