<svg xmlns="http://www.w3.org/2000/svg" preserveAspectRatio="xMinYMid" class="bliss-svg" viewBox="-8 -8 384 336"><style>
.bliss-line,.bliss-disc,.bliss-dot{stroke:#000;stroke-linejoin:round;stroke-linecap:round;stroke-width:8}
.bliss-line{fill:none}
.bliss-disc,.bliss-dot{fill:#000}
.bliss-text{font-family:"Helvetica Neue",Helvetica,Arial,"Liberation Sans",sans-serif;fill:#000}
</style><g><path class="bliss-line" d="M 0,192 A 64,64 0 0,0 128,192"/><line class="bliss-line" x1="0" y1="192" x2="128" y2="192"/><line class="bliss-line" x1="64" y1="128" x2="64" y2="192"/><path class="bliss-line" d="M 224,256 A 40,40 0 0,0 160,256"/><line class="bliss-line" x1="176" y1="256" x2="208" y2="288"/><line class="bliss-line" x1="176" y1="256" x2="240" y2="192"/><line class="bliss-line" x1="208" y1="288" x2="272" y2="224"/><path class="bliss-line" d="M 224,256 A 40,40 0 0,0 288,256"/><line class="bliss-line" x1="240" y1="192" x2="272" y2="224"/><line class="bliss-line" x1="256" y1="208" x2="288" y2="176"/><line class="bliss-line" x1="272" y1="160" x2="304" y2="192"/><line class="bliss-line" x1="272" y1="160" x2="336" y2="96"/><line class="bliss-line" x1="304" y1="192" x2="368" y2="128"/><line class="bliss-line" x1="336" y1="96" x2="368" y2="128"/></g></svg>
