<svg xmlns="http://www.w3.org/2000/svg" preserveAspectRatio="xMinYMid" class="bliss-svg" viewBox="-8 -8 656 336"><style>
.bliss-line,.bliss-disc,.bliss-dot{stroke:#000;stroke-linejoin:round;stroke-linecap:round;stroke-width:8}
.bliss-line{fill:none}
.bliss-disc,.bliss-dot{fill:#000}
.bliss-text{font-family:"Helvetica Neue",Helvetica,Arial,"Liberation Sans",sans-serif;fill:#000}
</style><g><line class="bliss-line" x1="0" y1="256" x2="64" y2="192"/><line class="bliss-line" x1="0" y1="192" x2="64" y2="256"/><line class="bliss-line" x1="96" y1="256" x2="160" y2="256"/><line class="bliss-line" x1="128" y1="128" x2="128" y2="256"/><path class="bliss-line" d="M 320,192 A 64,64 0 0,0 192,192"/><line class="bliss-line" x1="224" y1="256" x2="256" y2="192"/><line class="bliss-line" x1="256" y1="192" x2="288" y2="256"/><circle class="bliss-line" cx="416" cy="192" r="64"/><line class="bliss-line" x1="384" y1="176" x2="416" y2="144"/><line class="bliss-line" x1="416" y1="144" x2="448" y2="176"/><line class="bliss-line" x1="512" y1="256" x2="544" y2="192"/><line class="bliss-line" x1="512" y1="192" x2="640" y2="192"/><line class="bliss-line" x1="544" y1="192" x2="576" y2="256"/><line class="bliss-line" x1="576" y1="256" x2="608" y2="192"/><line class="bliss-line" x1="608" y1="192" x2="640" y2="256"/><path class="bliss-line" d="M 576,128 A 32,32 0 0,0 640,128"/></g></svg>
