<svg xmlns="http://www.w3.org/2000/svg" preserveAspectRatio="xMinYMid" class="bliss-svg" viewBox="-8 -8 560 336"><style>
.bliss-line,.bliss-disc,.bliss-dot{stroke:#000;stroke-linejoin:round;stroke-linecap:round;stroke-width:8}
.bliss-line{fill:none}
.bliss-disc,.bliss-dot{fill:#000}
.bliss-text{font-family:"Helvetica Neue",Helvetica,Arial,"Liberation Sans",sans-serif;fill:#000}
</style><g><line class="bliss-line" x1="0" y1="256" x2="64" y2="192"/><line class="bliss-line" x1="0" y1="192" x2="64" y2="256"/><line class="bliss-line" x1="96" y1="208" x2="128" y2="176"/><line class="bliss-line" x1="96" y1="176" x2="128" y2="208"/><line class="bliss-line" x1="112" y1="160" x2="112" y2="224"/><line class="bliss-line" x1="160" y1="256" x2="192" y2="192"/><path class="bliss-line" d="M 192,256 A 16,16 0 0,0 160,256"/><line class="bliss-line" x1="160" y1="192" x2="288" y2="192"/><line class="bliss-line" x1="192" y1="192" x2="224" y2="256"/><line class="bliss-line" x1="224" y1="256" x2="256" y2="192"/><path class="bliss-line" d="M 256,256 A 16,16 0 0,0 224,256"/><line class="bliss-line" x1="256" y1="192" x2="288" y2="256"/><path class="bliss-line" d="M 320,256 A 16,16 0 0,0 288,256"/><path class="bliss-line" d="M 384,128 A 80,80 0 0,0 384,256"/><line class="bliss-line" x1="384" y1="128" x2="512" y2="128"/><line class="bliss-line" x1="384" y1="256" x2="512" y2="256"/><path class="bliss-line" d="M 416,96 A 20,20 0 0,0 416,128"/><path class="bliss-line" d="M 448,96 A 20,20 0 0,0 448,128"/><path class="bliss-line" d="M 480,96 A 20,20 0 0,0 480,128"/><path class="bliss-line" d="M 512,256 A 80,80 0 0,0 512,128"/><line class="bliss-line" x1="496" y1="96" x2="528" y2="64"/><line class="bliss-line" x1="496" y1="96" x2="528" y2="128"/></g></svg>
