<svg xmlns="http://www.w3.org/2000/svg" preserveAspectRatio="xMinYMid" class="bliss-svg" viewBox="-8 -8 592 336"><style>
.bliss-line,.bliss-disc,.bliss-dot{stroke:#000;stroke-linejoin:round;stroke-linecap:round;stroke-width:8}
.bliss-line{fill:none}
.bliss-disc,.bliss-dot{fill:#000}
.bliss-text{font-family:"Helvetica Neue",Helvetica,Arial,"Liberation Sans",sans-serif;fill:#000}
</style><g><line class="bliss-line" x1="0" y1="256" x2="32" y2="192"/><line class="bliss-line" x1="32" y1="192" x2="64" y2="256"/><path class="bliss-line" d="M 160,160 A 32,32 0 0,0 96,160"/><path class="bliss-line" d="M 96,160 Q 96,208 160,256"/><path class="bliss-line" d="M 224,160 A 32,32 0 0,0 160,160"/><path class="bliss-line" d="M 160,256 Q 224,208 224,160"/><line class="bliss-line" x1="256" y1="160" x2="256" y2="224"/><line class="bliss-line" x1="256" y1="160" x2="384" y2="160"/><line class="bliss-line" x1="256" y1="224" x2="384" y2="224"/><line class="bliss-line" x1="384" y1="160" x2="384" y2="224"/><line class="bliss-line" x1="416" y1="224" x2="544" y2="224"/><line class="bliss-line" x1="432" y1="256" x2="496" y2="128"/><line class="bliss-line" x1="448" y1="160" x2="576" y2="160"/><line class="bliss-line" x1="496" y1="256" x2="560" y2="128"/></g></svg>
