<svg xmlns="http://www.w3.org/2000/svg" preserveAspectRatio="xMinYMid" class="bliss-svg" viewBox="-8 -8 800 336"><style>
.bliss-line,.bliss-disc,.bliss-dot{stroke:#000;stroke-linejoin:round;stroke-linecap:round;stroke-width:8}
.bliss-line{fill:none}
.bliss-disc,.bliss-dot{fill:#000}
.bliss-text{font-family:"Helvetica Neue",Helvetica,Arial,"Liberation Sans",sans-serif;fill:#000}
</style><g><path class="bliss-line" d="M 16,224 A 16,16 0 1,0 0,208"/><path class="bliss-line" d="M 0,240 A 16,16 0 1,0 16,224"/><path class="bliss-line" d="M 64,192 A 64,64 0 0,0 128,128"/><line class="bliss-line" x1="128" y1="128" x2="128" y2="256"/><path class="bliss-line" d="M 128,128 A 64,64 0 0,0 192,192"/><line class="bliss-line" x1="208" y1="192" x2="240" y2="160"/><line class="bliss-line" x1="208" y1="192" x2="240" y2="224"/><line class="bliss-line" x1="272" y1="192" x2="304" y2="192"/><line class="bliss-line" x1="288" y1="256" x2="304" y2="192"/><circle class="bliss-line" cx="400" cy="192" r="64"/><line class="bliss-line" x1="336" y1="256" x2="464" y2="256"/><line class="bliss-line" x1="496" y1="192" x2="560" y2="128"/><line class="bliss-line" x1="560" y1="128" x2="624" y2="192"/><line class="bliss-line" x1="544" y1="64" x2="544" y2="96"/><line class="bliss-line" x1="544" y1="64" x2="576" y2="64"/><line class="bliss-line" x1="544" y1="96" x2="576" y2="96"/><line class="bliss-line" x1="576" y1="64" x2="576" y2="96"/><path class="bliss-line" d="M 656,192 A 64,64 0 0,0 720,128"/><line class="bliss-line" x1="720" y1="128" x2="720" y2="256"/><path class="bliss-line" d="M 720,128 A 64,64 0 0,0 784,192"/><line class="bliss-line" x1="704" y1="96" x2="736" y2="64"/><line class="bliss-line" x1="704" y1="64" x2="736" y2="96"/></g></svg>
