<svg xmlns="http://www.w3.org/2000/svg" preserveAspectRatio="xMinYMid" class="bliss-svg" viewBox="-8 -8 352 336"><style>
.bliss-line,.bliss-disc,.bliss-dot{stroke:#000;stroke-linejoin:round;stroke-linecap:round;stroke-width:8}
.bliss-line{fill:none}
.bliss-disc,.bliss-dot{fill:#000}
.bliss-text{font-family:"Helvetica Neue",Helvetica,Arial,"Liberation Sans",sans-serif;fill:#000}
</style><g><circle class="bliss-line" cx="64" cy="192" r="64"/><line class="bliss-line" x1="0" y1="128" x2="128" y2="256"/><line class="bliss-line" x1="144" y1="256" x2="176" y2="224"/><line class="bliss-line" x1="144" y1="256" x2="176" y2="288"/><line class="bliss-line" x1="208" y1="160" x2="208" y2="224"/><line class="bliss-line" x1="208" y1="160" x2="336" y2="160"/><line class="bliss-line" x1="208" y1="224" x2="336" y2="224"/><line class="bliss-line" x1="272" y1="160" x2="272" y2="224"/><line class="bliss-line" x1="336" y1="160" x2="336" y2="224"/><path class="bliss-line" d="M 304,128 A 40,40 0 0,0 240,128"/><path class="bliss-line" d="M 240,256 A 40,40 0 0,0 304,256"/><path class="bliss-line" d="M 288,144 A 20,20 0 0,0 256,144"/><path class="bliss-line" d="M 256,240 A 20,20 0 0,0 288,240"/></g></svg>
