<svg xmlns="http://www.w3.org/2000/svg" preserveAspectRatio="xMinYMid" class="bliss-svg" viewBox="-8 -8 400 336"><style>
.bliss-line,.bliss-disc,.bliss-dot{stroke:#000;stroke-linejoin:round;stroke-linecap:round;stroke-width:8}
.bliss-line{fill:none}
.bliss-disc,.bliss-dot{fill:#000}
.bliss-text{font-family:"Helvetica Neue",Helvetica,Arial,"Liberation Sans",sans-serif;fill:#000}
</style><g><circle class="bliss-line" cx="32" cy="192" r="32"/><line class="bliss-line" x1="0" y1="256" x2="64" y2="256"/><line class="bliss-line" x1="96" y1="256" x2="128" y2="192"/><line class="bliss-line" x1="96" y1="192" x2="224" y2="192"/><line class="bliss-line" x1="128" y1="192" x2="160" y2="256"/><line class="bliss-line" x1="160" y1="256" x2="192" y2="192"/><line class="bliss-line" x1="192" y1="192" x2="224" y2="256"/><path class="bliss-line" d="M 320,192 A 40,40 0 0,0 256,192"/><line class="bliss-line" x1="288" y1="160" x2="288" y2="224"/><line class="bliss-line" x1="288" y1="160" x2="352" y2="160"/><line class="bliss-line" x1="288" y1="224" x2="352" y2="224"/><path class="bliss-line" d="M 320,192 A 40,40 0 0,0 384,192"/><line class="bliss-line" x1="352" y1="160" x2="352" y2="224"/></g></svg>
