<svg xmlns="http://www.w3.org/2000/svg" preserveAspectRatio="xMinYMid" class="bliss-svg" viewBox="-8 -8 432 336"><style>
.bliss-line,.bliss-disc,.bliss-dot{stroke:#000;stroke-linejoin:round;stroke-linecap:round;stroke-width:8}
.bliss-line{fill:none}
.bliss-disc,.bliss-dot{fill:#000}
.bliss-text{font-family:"Helvetica Neue",Helvetica,Arial,"Liberation Sans",sans-serif;fill:#000}
</style><g><line class="bliss-line" x1="0" y1="224" x2="32" y2="192"/><line class="bliss-line" x1="32" y1="192" x2="64" y2="224"/><path class="bliss-line" d="M 32,192 A 64,64 0 0,0 96,256"/><path class="bliss-line" d="M 96,256 A 64,64 0 0,0 96,128"/><line class="bliss-line" x1="80" y1="64" x2="80" y2="96"/><line class="bliss-line" x1="80" y1="64" x2="112" y2="64"/><line class="bliss-line" x1="80" y1="96" x2="112" y2="96"/><line class="bliss-line" x1="112" y1="64" x2="112" y2="96"/><path class="bliss-line" d="M 256,160 A 32,32 0 0,0 192,160"/><path class="bliss-line" d="M 192,160 Q 192,208 256,256"/><path class="bliss-line" d="M 320,160 A 32,32 0 0,0 256,160"/><path class="bliss-line" d="M 256,256 Q 320,208 320,160"/><line class="bliss-line" x1="352" y1="160" x2="384" y2="128"/><line class="bliss-line" x1="384" y1="128" x2="384" y2="256"/><line class="bliss-line" x1="384" y1="128" x2="416" y2="160"/></g></svg>
