<svg xmlns="http://www.w3.org/2000/svg" preserveAspectRatio="xMinYMid" class="bliss-svg" viewBox="-8 -8 320 336"><style>
.bliss-line,.bliss-disc,.bliss-dot{stroke:#000;stroke-linejoin:round;stroke-linecap:round;stroke-width:8}
.bliss-line{fill:none}
.bliss-disc,.bliss-dot{fill:#000}
.bliss-text{font-family:"Helvetica Neue",Helvetica,Arial,"Liberation Sans",sans-serif;fill:#000}
</style><g><line class="bliss-line" x1="0" y1="160" x2="0" y2="224"/><line class="bliss-line" x1="0" y1="160" x2="64" y2="160"/><line class="bliss-line" x1="0" y1="224" x2="64" y2="224"/><line class="bliss-line" x1="64" y1="160" x2="64" y2="224"/><path class="bliss-line" d="M 160,192 A 40,40 0 0,0 96,192"/><circle class="bliss-line" cx="160" cy="192" r="64"/><line class="bliss-line" x1="160" y1="128" x2="160" y2="256"/><path class="bliss-line" d="M 160,192 A 40,40 0 0,0 224,192"/><path class="bliss-line" d="M 256,208 A 20,20 0 0,0 256,176"/><path class="bliss-line" d="M 272,256 A 80,80 0 0,0 272,128"/><path class="bliss-line" d="M 272,224 A 40,40 0 0,0 272,160"/></g></svg>
