<svg xmlns="http://www.w3.org/2000/svg" preserveAspectRatio="xMinYMid" class="bliss-svg" viewBox="-8 -8 592 336"><style>
.bliss-line,.bliss-disc,.bliss-dot{stroke:#000;stroke-linejoin:round;stroke-linecap:round;stroke-width:8}
.bliss-line{fill:none}
.bliss-disc,.bliss-dot{fill:#000}
.bliss-text{font-family:"Helvetica Neue",Helvetica,Arial,"Liberation Sans",sans-serif;fill:#000}
</style><g><line class="bliss-line" x1="0" y1="128" x2="0" y2="192"/><line class="bliss-line" x1="0" y1="256" x2="32" y2="192"/><line class="bliss-line" x1="0" y1="192" x2="64" y2="192"/><line class="bliss-line" x1="32" y1="192" x2="64" y2="256"/><line class="bliss-line" x1="64" y1="128" x2="64" y2="256"/><path class="bliss-line" d="M 128,208 A 16,16 0 0,0 96,208"/><line class="bliss-line" x1="96" y1="256" x2="128" y2="208"/><line class="bliss-line" x1="96" y1="256" x2="128" y2="256"/><circle class="bliss-line" cx="192" cy="224" r="32"/><line class="bliss-line" x1="169.37258300203" y1="246.62741699797" x2="214.62741699793003" y2="201.37258300206997"/><line class="bliss-line" x1="169.37258300203" y1="201.37258300206997" x2="214.62741699793003" y2="246.62741699797"/><circle class="bliss-line" cx="320" cy="192" r="64"/><circle class="bliss-line" cx="320" cy="224" r="32"/><line class="bliss-line" x1="297.37258300203" y1="246.62741699797" x2="342.62741699793" y2="201.37258300206997"/><line class="bliss-line" x1="297.37258300203" y1="201.37258300206997" x2="342.62741699793" y2="246.62741699797"/><line class="bliss-line" x1="416" y1="192" x2="544" y2="192"/><line class="bliss-line" x1="512" y1="160" x2="544" y2="192"/><line class="bliss-line" x1="512" y1="224" x2="544" y2="192"/><line class="bliss-line" x1="576" y1="160" x2="576" y2="208"/><circle class="bliss-dot" cx="576" cy="224" r="4"/></g></svg>
