<svg xmlns="http://www.w3.org/2000/svg" preserveAspectRatio="xMinYMid" class="bliss-svg" viewBox="-8 -8 592 336"><style>
.bliss-line,.bliss-disc,.bliss-dot{stroke:#000;stroke-linejoin:round;stroke-linecap:round;stroke-width:8}
.bliss-line{fill:none}
.bliss-disc,.bliss-dot{fill:#000}
.bliss-text{font-family:"Helvetica Neue",Helvetica,Arial,"Liberation Sans",sans-serif;fill:#000}
</style><g><line class="bliss-line" x1="0" y1="160" x2="0" y2="224"/><circle class="bliss-line" cx="32" cy="160" r="32"/><path class="bliss-line" d="M 0,224 A 32,32 0 0,0 64,224"/><line class="bliss-line" x1="64" y1="160" x2="64" y2="224"/><line class="bliss-line" x1="96" y1="128" x2="96" y2="256"/><circle class="bliss-line" cx="160" cy="192" r="64"/><line class="bliss-line" x1="96" y1="128" x2="224" y2="128"/><line class="bliss-line" x1="96" y1="256" x2="224" y2="256"/><circle class="bliss-line" cx="160" cy="192" r="32"/><circle class="bliss-dot" cx="160" cy="192" r="4"/><line class="bliss-line" x1="224" y1="128" x2="224" y2="256"/><line class="bliss-line" x1="224" y1="192" x2="288" y2="192"/><line class="bliss-line" x1="256" y1="160" x2="288" y2="192"/><line class="bliss-line" x1="256" y1="224" x2="288" y2="192"/><line class="bliss-line" x1="320" y1="192" x2="384" y2="192"/><path class="bliss-line" d="M 448,160 A 32,32 0 0,0 384,160"/><path class="bliss-line" d="M 384,160 Q 384,208 448,256"/><path class="bliss-line" d="M 512,160 A 32,32 0 0,0 448,160"/><path class="bliss-line" d="M 448,256 Q 512,208 512,160"/><line class="bliss-line" x1="448" y1="192" x2="576" y2="192"/><line class="bliss-line" x1="544" y1="160" x2="576" y2="192"/><line class="bliss-line" x1="544" y1="224" x2="576" y2="192"/></g></svg>
