<svg xmlns="http://www.w3.org/2000/svg" preserveAspectRatio="xMinYMid" class="bliss-svg" viewBox="-8 -8 560 336"><style>
.bliss-line,.bliss-disc,.bliss-dot{stroke:#000;stroke-linejoin:round;stroke-linecap:round;stroke-width:8}
.bliss-line{fill:none}
.bliss-disc,.bliss-dot{fill:#000}
.bliss-text{font-family:"Helvetica Neue",Helvetica,Arial,"Liberation Sans",sans-serif;fill:#000}
</style><g><line class="bliss-line" x1="0" y1="256" x2="128" y2="256"/><path class="bliss-line" d="M 96,256 A 80,80 0 0,0 64,192"/><path class="bliss-line" d="M 128,256 A 64,64 0 0,0 64,192"/><circle class="bliss-dot" cx="160" cy="192" r="4"/><line class="bliss-line" x1="192" y1="128" x2="192" y2="256"/><line class="bliss-line" x1="224" y1="192" x2="288" y2="128"/><line class="bliss-line" x1="288" y1="128" x2="352" y2="192"/><line class="bliss-line" x1="272" y1="208" x2="304" y2="176"/><line class="bliss-line" x1="272" y1="176" x2="304" y2="208"/><line class="bliss-line" x1="288" y1="160" x2="288" y2="224"/><circle class="bliss-line" cx="448" cy="192" r="64"/><line class="bliss-line" x1="480" y1="160" x2="512" y2="192"/><line class="bliss-line" x1="512" y1="192" x2="544" y2="160"/></g></svg>
