<svg xmlns="http://www.w3.org/2000/svg" preserveAspectRatio="xMinYMid" class="bliss-svg" viewBox="-8 -8 464 336"><style>
.bliss-line,.bliss-disc,.bliss-dot{stroke:#000;stroke-linejoin:round;stroke-linecap:round;stroke-width:8}
.bliss-line{fill:none}
.bliss-disc,.bliss-dot{fill:#000}
.bliss-text{font-family:"Helvetica Neue",Helvetica,Arial,"Liberation Sans",sans-serif;fill:#000}
</style><g><line class="bliss-line" x1="0" y1="128" x2="0" y2="256"/><line class="bliss-line" x1="0" y1="192" x2="32" y2="160"/><line class="bliss-line" x1="0" y1="256" x2="64" y2="256"/><path class="bliss-line" d="M 64,192 A 40,40 0 0,0 128,192"/><path class="bliss-line" d="M 192,192 A 40,40 0 0,0 128,192"/><path class="bliss-line" d="M 256,192 A 40,40 0 0,0 192,192"/><path class="bliss-line" d="M 192,192 A 40,40 0 0,0 256,192"/><line class="bliss-line" x1="288" y1="160" x2="288" y2="208"/><circle class="bliss-dot" cx="288" cy="224" r="4"/><line class="bliss-line" x1="320" y1="128" x2="320" y2="256"/><line class="bliss-line" x1="320" y1="128" x2="448" y2="128"/><line class="bliss-line" x1="320" y1="256" x2="448" y2="256"/><circle class="bliss-line" cx="384" cy="192" r="32"/><circle class="bliss-dot" cx="384" cy="192" r="4"/><line class="bliss-line" x1="448" y1="128" x2="448" y2="256"/></g></svg>
