<svg xmlns="http://www.w3.org/2000/svg" preserveAspectRatio="xMinYMid" class="bliss-svg" viewBox="-8 -8 496 336"><style>
.bliss-line,.bliss-disc,.bliss-dot{stroke:#000;stroke-linejoin:round;stroke-linecap:round;stroke-width:8}
.bliss-line{fill:none}
.bliss-disc,.bliss-dot{fill:#000}
.bliss-text{font-family:"Helvetica Neue",Helvetica,Arial,"Liberation Sans",sans-serif;fill:#000}
</style><g><line class="bliss-line" x1="0" y1="160" x2="0" y2="224"/><line class="bliss-line" x1="0" y1="160" x2="64" y2="160"/><line class="bliss-line" x1="0" y1="224" x2="64" y2="224"/><line class="bliss-line" x1="64" y1="160" x2="64" y2="224"/><line class="bliss-line" x1="96" y1="128" x2="160" y2="256"/><line class="bliss-line" x1="160" y1="256" x2="224" y2="128"/><path class="bliss-line" d="M 320,160 A 32,32 0 0,0 256,160"/><path class="bliss-line" d="M 256,160 Q 256,208 320,256"/><path class="bliss-line" d="M 384,160 A 32,32 0 0,0 320,160"/><path class="bliss-line" d="M 320,256 Q 384,208 384,160"/><line class="bliss-line" x1="416" y1="192" x2="480" y2="192"/><line class="bliss-line" x1="448" y1="160" x2="448" y2="224"/></g></svg>
