<svg xmlns="http://www.w3.org/2000/svg" preserveAspectRatio="xMinYMid" class="bliss-svg" viewBox="-8 -8 296 336"><style>
.bliss-line,.bliss-disc,.bliss-dot{stroke:#000;stroke-linejoin:round;stroke-linecap:round;stroke-width:8}
.bliss-line{fill:none}
.bliss-disc,.bliss-dot{fill:#000}
.bliss-text{font-family:"Helvetica Neue",Helvetica,Arial,"Liberation Sans",sans-serif;fill:#000}
</style><g><line class="bliss-line" x1="0" y1="208" x2="16" y2="192"/><line class="bliss-line" x1="0" y1="256" x2="32" y2="256"/><line class="bliss-line" x1="16" y1="192" x2="16" y2="256"/><line class="bliss-line" x1="48" y1="192" x2="48" y2="224"/><line class="bliss-line" x1="48" y1="224" x2="64" y2="224"/><line class="bliss-line" x1="48" y1="192" x2="80" y2="192"/><line class="bliss-line" x1="48" y1="256" x2="64" y2="256"/><path class="bliss-line" d="M 64,256 A 16,16 0 0,0 64,224"/><circle class="bliss-line" cx="176" cy="192" r="64"/><line class="bliss-line" x1="176" y1="128" x2="176" y2="192"/><line class="bliss-line" x1="176" y1="192" x2="240" y2="192"/><circle class="bliss-disc" cx="276" cy="128" r="4"/><path class="bliss-line" d="M 276,140 A 16,16 0 0,0 280,128"/></g></svg>
