<svg xmlns="http://www.w3.org/2000/svg" preserveAspectRatio="xMinYMid" class="bliss-svg" viewBox="-8 -8 288 336"><style>
.bliss-line,.bliss-disc,.bliss-dot{stroke:#000;stroke-linejoin:round;stroke-linecap:round;stroke-width:8}
.bliss-line{fill:none}
.bliss-disc,.bliss-dot{fill:#000}
.bliss-text{font-family:"Helvetica Neue",Helvetica,Arial,"Liberation Sans",sans-serif;fill:#000}
</style><g><line class="bliss-line" x1="0" y1="192" x2="64" y2="256"/><line class="bliss-line" x1="32" y1="160" x2="32" y2="224"/><line class="bliss-line" x1="32" y1="160" x2="96" y2="160"/><line class="bliss-line" x1="32" y1="224" x2="96" y2="224"/><line class="bliss-line" x1="64" y1="128" x2="64" y2="256"/><line class="bliss-line" x1="96" y1="160" x2="96" y2="224"/><path class="bliss-line" d="M 128,208 A 20,20 0 0,0 128,176"/><path class="bliss-line" d="M 144,256 A 80,80 0 0,0 144,128"/><path class="bliss-line" d="M 144,224 A 40,40 0 0,0 144,160"/><line class="bliss-line" x1="208" y1="192" x2="272" y2="128"/><line class="bliss-line" x1="208" y1="128" x2="272" y2="192"/><circle class="bliss-line" cx="240" cy="224" r="32"/><line class="bliss-line" x1="208" y1="192" x2="272" y2="192"/><circle class="bliss-dot" cx="240" cy="224" r="4"/></g></svg>
