<svg xmlns="http://www.w3.org/2000/svg" preserveAspectRatio="xMinYMid" class="bliss-svg" viewBox="-8 -8 496 336"><style>
.bliss-line,.bliss-disc,.bliss-dot{stroke:#000;stroke-linejoin:round;stroke-linecap:round;stroke-width:8}
.bliss-line{fill:none}
.bliss-disc,.bliss-dot{fill:#000}
.bliss-text{font-family:"Helvetica Neue",Helvetica,Arial,"Liberation Sans",sans-serif;fill:#000}
</style><g><circle class="bliss-line" cx="32" cy="192" r="32"/><line class="bliss-line" x1="32" y1="160" x2="32" y2="224"/><line class="bliss-line" x1="0" y1="256" x2="64" y2="256"/><line class="bliss-line" x1="96" y1="160" x2="160" y2="160"/><line class="bliss-line" x1="128" y1="128" x2="128" y2="256"/><path class="bliss-line" d="M 208,128 A 40,40 0 0,0 208,192"/><path class="bliss-line" d="M 240,192 A 40,40 0 0,0 240,128"/><path class="bliss-line" d="M 416,128 A 64,64 0 0,0 288,128"/><path class="bliss-line" d="M 416,192 A 64,64 0 0,0 288,192"/><line class="bliss-line" x1="288" y1="192" x2="416" y2="192"/><line class="bliss-line" x1="352" y1="128" x2="352" y2="256"/><line class="bliss-line" x1="384" y1="160" x2="416" y2="192"/><line class="bliss-line" x1="384" y1="224" x2="416" y2="192"/><line class="bliss-line" x1="448" y1="128" x2="448" y2="256"/><circle class="bliss-dot" cx="480" cy="192" r="4"/></g></svg>
