<svg xmlns="http://www.w3.org/2000/svg" preserveAspectRatio="xMinYMid" class="bliss-svg" viewBox="-8 -8 416 336"><style>
.bliss-line,.bliss-disc,.bliss-dot{stroke:#000;stroke-linejoin:round;stroke-linecap:round;stroke-width:8}
.bliss-line{fill:none}
.bliss-disc,.bliss-dot{fill:#000}
.bliss-text{font-family:"Helvetica Neue",Helvetica,Arial,"Liberation Sans",sans-serif;fill:#000}
</style><g><line class="bliss-line" x1="0" y1="256" x2="32" y2="192"/><line class="bliss-line" x1="32" y1="128" x2="32" y2="192"/><line class="bliss-line" x1="32" y1="192" x2="64" y2="256"/><circle class="bliss-line" cx="160" cy="192" r="64"/><path class="bliss-line" d="M 128,256 A 20,20 0 0,0 128,288"/><circle class="bliss-dot" cx="128" cy="160" r="4"/><line class="bliss-line" x1="128" y1="224" x2="192" y2="224"/><path class="bliss-line" d="M 160,256 A 20,20 0 0,0 160,288"/><line class="bliss-line" x1="160" y1="160" x2="160" y2="224"/><path class="bliss-line" d="M 192,256 A 20,20 0 0,0 192,288"/><circle class="bliss-dot" cx="192" cy="160" r="4"/><line class="bliss-line" x1="208" y1="288" x2="240" y2="256"/><line class="bliss-line" x1="208" y1="288" x2="240" y2="320"/><path class="bliss-line" d="M 272,192 A 64,64 0 0,0 336,128"/><path class="bliss-line" d="M 272,224 A 64,64 0 0,0 336,160"/><line class="bliss-line" x1="336" y1="128" x2="336" y2="256"/><path class="bliss-line" d="M 336,128 A 64,64 0 0,0 400,192"/><path class="bliss-line" d="M 336,160 A 64,64 0 0,0 400,224"/></g></svg>
