<svg xmlns="http://www.w3.org/2000/svg" preserveAspectRatio="xMinYMid" class="bliss-svg" viewBox="-8 -8 528 336"><style>
.bliss-line,.bliss-disc,.bliss-dot{stroke:#000;stroke-linejoin:round;stroke-linecap:round;stroke-width:8}
.bliss-line{fill:none}
.bliss-disc,.bliss-dot{fill:#000}
.bliss-text{font-family:"Helvetica Neue",Helvetica,Arial,"Liberation Sans",sans-serif;fill:#000}
</style><g><path class="bliss-line" d="M 0,192 A 64,64 0 0,0 128,192"/><path class="bliss-line" d="M 224,192 A 40,40 0 0,0 160,192"/><path class="bliss-line" d="M 224,192 A 40,40 0 0,0 288,192"/><path class="bliss-line" d="M 320,192 A 40,40 0 0,0 384,192"/><path class="bliss-line" d="M 448,192 A 40,40 0 0,0 384,192"/><path class="bliss-line" d="M 512,192 A 40,40 0 0,0 448,192"/><path class="bliss-line" d="M 448,192 A 40,40 0 0,0 512,192"/></g></svg>
