<svg xmlns="http://www.w3.org/2000/svg" preserveAspectRatio="xMinYMid" class="bliss-svg" viewBox="-8 -8 416 336"><style>
.bliss-line,.bliss-disc,.bliss-dot{stroke:#000;stroke-linejoin:round;stroke-linecap:round;stroke-width:8}
.bliss-line{fill:none}
.bliss-disc,.bliss-dot{fill:#000}
.bliss-text{font-family:"Helvetica Neue",Helvetica,Arial,"Liberation Sans",sans-serif;fill:#000}
</style><g><line class="bliss-line" x1="0" y1="160" x2="0" y2="224"/><line class="bliss-line" x1="0" y1="160" x2="64" y2="160"/><line class="bliss-line" x1="0" y1="224" x2="64" y2="224"/><line class="bliss-line" x1="64" y1="160" x2="64" y2="224"/><path class="bliss-line" d="M 160,192 A 40,40 0 0,0 96,192"/><path class="bliss-line" d="M 96,192 A 64,64 0 0,0 224,192"/><path class="bliss-line" d="M 160,192 A 40,40 0 0,0 224,192"/><circle class="bliss-line" cx="320" cy="192" r="64"/><path class="bliss-line" d="M 288,96 A 20,20 0 0,0 288,128"/><line class="bliss-line" x1="288" y1="224" x2="352" y2="224"/><path class="bliss-line" d="M 320,96 A 20,20 0 0,0 320,128"/><line class="bliss-line" x1="320" y1="160" x2="320" y2="224"/><path class="bliss-line" d="M 352,96 A 20,20 0 0,0 352,128"/><line class="bliss-line" x1="368" y1="96" x2="400" y2="64"/><line class="bliss-line" x1="368" y1="96" x2="400" y2="128"/></g></svg>
