<svg xmlns="http://www.w3.org/2000/svg" preserveAspectRatio="xMinYMid" class="bliss-svg" viewBox="-8 -8 320 336"><style>
.bliss-line,.bliss-disc,.bliss-dot{stroke:#000;stroke-linejoin:round;stroke-linecap:round;stroke-width:8}
.bliss-line{fill:none}
.bliss-disc,.bliss-dot{fill:#000}
.bliss-text{font-family:"Helvetica Neue",Helvetica,Arial,"Liberation Sans",sans-serif;fill:#000}
</style><g><line class="bliss-line" x1="0" y1="192" x2="64" y2="256"/><line class="bliss-line" x1="0" y1="256" x2="128" y2="128"/><circle class="bliss-line" cx="224" cy="192" r="64"/><path class="bliss-line" d="M 192,256 A 20,20 0 0,0 192,288"/><circle class="bliss-dot" cx="192" cy="160" r="4"/><line class="bliss-line" x1="192" y1="224" x2="256" y2="224"/><path class="bliss-line" d="M 224,256 A 20,20 0 0,0 224,288"/><line class="bliss-line" x1="224" y1="160" x2="224" y2="224"/><path class="bliss-line" d="M 256,256 A 20,20 0 0,0 256,288"/><circle class="bliss-dot" cx="256" cy="160" r="4"/><line class="bliss-line" x1="272" y1="288" x2="304" y2="256"/><line class="bliss-line" x1="272" y1="288" x2="304" y2="320"/></g></svg>
