<svg xmlns="http://www.w3.org/2000/svg" preserveAspectRatio="xMinYMid" class="bliss-svg" viewBox="-8 -8 400 336"><style>
.bliss-line,.bliss-disc,.bliss-dot{stroke:#000;stroke-linejoin:round;stroke-linecap:round;stroke-width:8}
.bliss-line{fill:none}
.bliss-disc,.bliss-dot{fill:#000}
.bliss-text{font-family:"Helvetica Neue",Helvetica,Arial,"Liberation Sans",sans-serif;fill:#000}
</style><g><line class="bliss-line" x1="0" y1="128" x2="0" y2="256"/><path class="bliss-line" d="M 0,256 A 64,64 0 0,0 0,128"/><line class="bliss-line" x1="96" y1="192" x2="160" y2="128"/><line class="bliss-line" x1="160" y1="128" x2="224" y2="192"/><line class="bliss-line" x1="144" y1="208" x2="176" y2="176"/><line class="bliss-line" x1="144" y1="176" x2="176" y2="208"/><line class="bliss-line" x1="160" y1="160" x2="160" y2="224"/><path class="bliss-line" d="M 256,192 A 64,64 0 0,0 320,128"/><line class="bliss-line" x1="320" y1="128" x2="320" y2="256"/><path class="bliss-line" d="M 320,128 A 64,64 0 0,0 384,192"/><line class="bliss-line" x1="304" y1="96" x2="336" y2="64"/><line class="bliss-line" x1="304" y1="64" x2="336" y2="96"/></g></svg>
