<svg xmlns="http://www.w3.org/2000/svg" preserveAspectRatio="xMinYMid" class="bliss-svg" viewBox="-8 -8 464 336"><style>
.bliss-line,.bliss-disc,.bliss-dot{stroke:#000;stroke-linejoin:round;stroke-linecap:round;stroke-width:8}
.bliss-line{fill:none}
.bliss-disc,.bliss-dot{fill:#000}
.bliss-text{font-family:"Helvetica Neue",Helvetica,Arial,"Liberation Sans",sans-serif;fill:#000}
</style><g><line class="bliss-line" x1="0" y1="160" x2="0" y2="224"/><line class="bliss-line" x1="0" y1="160" x2="64" y2="160"/><line class="bliss-line" x1="0" y1="224" x2="64" y2="224"/><line class="bliss-line" x1="64" y1="160" x2="64" y2="224"/><line class="bliss-line" x1="0" y1="256" x2="64" y2="256"/><path class="bliss-line" d="M 160,288 A 32,32 0 0,0 96,288"/><line class="bliss-line" x1="96" y1="256" x2="288" y2="256"/><path class="bliss-line" d="M 160,288 A 32,32 0 0,0 224,288"/><path class="bliss-line" d="M 288,288 A 32,32 0 0,0 224,288"/><line class="bliss-line" x1="320" y1="160" x2="448" y2="160"/><line class="bliss-line" x1="320" y1="224" x2="448" y2="224"/><line class="bliss-line" x1="352" y1="128" x2="352" y2="256"/><line class="bliss-line" x1="416" y1="128" x2="416" y2="256"/></g></svg>
