<svg xmlns="http://www.w3.org/2000/svg" preserveAspectRatio="xMinYMid" class="bliss-svg" viewBox="-8 -8 688 336"><style>
.bliss-line,.bliss-disc,.bliss-dot{stroke:#000;stroke-linejoin:round;stroke-linecap:round;stroke-width:8}
.bliss-line{fill:none}
.bliss-disc,.bliss-dot{fill:#000}
.bliss-text{font-family:"Helvetica Neue",Helvetica,Arial,"Liberation Sans",sans-serif;fill:#000}
</style><g><circle class="bliss-line" cx="32" cy="224" r="32"/><path class="bliss-line" d="M 80,256 A 40,40 0 0,0 80,192"/><circle class="bliss-line" cx="192" cy="192" r="64"/><line class="bliss-line" x1="128" y1="256" x2="256" y2="256"/><path class="bliss-line" d="M 352,160 A 32,32 0 0,0 288,160"/><path class="bliss-line" d="M 288,160 Q 288,208 352,256"/><path class="bliss-line" d="M 416,160 A 32,32 0 0,0 352,160"/><path class="bliss-line" d="M 352,256 Q 416,208 416,160"/><line class="bliss-line" x1="448" y1="160" x2="480" y2="128"/><line class="bliss-line" x1="480" y1="128" x2="480" y2="256"/><line class="bliss-line" x1="480" y1="128" x2="512" y2="160"/><circle class="bliss-line" cx="608" cy="192" r="64"/><circle class="bliss-line" cx="608" cy="192" r="32"/><circle class="bliss-dot" cx="608" cy="192" r="4"/></g></svg>
