<svg xmlns="http://www.w3.org/2000/svg" preserveAspectRatio="xMinYMid" class="bliss-svg" viewBox="-8 -8 752 336"><style>
.bliss-line,.bliss-disc,.bliss-dot{stroke:#000;stroke-linejoin:round;stroke-linecap:round;stroke-width:8}
.bliss-line{fill:none}
.bliss-disc,.bliss-dot{fill:#000}
.bliss-text{font-family:"Helvetica Neue",Helvetica,Arial,"Liberation Sans",sans-serif;fill:#000}
</style><g><line class="bliss-line" x1="0" y1="192" x2="64" y2="192"/><line class="bliss-line" x1="32" y1="160" x2="64" y2="192"/><line class="bliss-line" x1="32" y1="224" x2="64" y2="192"/><line class="bliss-line" x1="64" y1="128" x2="96" y2="160"/><line class="bliss-line" x1="96" y1="96" x2="96" y2="160"/><line class="bliss-line" x1="96" y1="160" x2="128" y2="128"/><line class="bliss-line" x1="64" y1="256" x2="96" y2="224"/><line class="bliss-line" x1="96" y1="224" x2="96" y2="288"/><line class="bliss-line" x1="96" y1="224" x2="128" y2="256"/><line class="bliss-line" x1="128" y1="192" x2="160" y2="160"/><line class="bliss-line" x1="128" y1="192" x2="160" y2="224"/><line class="bliss-line" x1="128" y1="192" x2="192" y2="192"/><circle class="bliss-line" cx="288" cy="192" r="64"/><line class="bliss-line" x1="224" y1="256" x2="352" y2="256"/><circle class="bliss-line" cx="448" cy="192" r="64"/><path class="bliss-line" d="M 576,208 A 16,16 0 0,0 544,208"/><line class="bliss-line" x1="544" y1="256" x2="576" y2="208"/><line class="bliss-line" x1="544" y1="256" x2="576" y2="256"/><line class="bliss-line" x1="608" y1="192" x2="640" y2="160"/><line class="bliss-line" x1="608" y1="192" x2="640" y2="224"/><path class="bliss-line" d="M 672,192 A 40,40 0 0,0 672,256"/><path class="bliss-line" d="M 672,192 A 40,40 0 0,0 672,128"/><line class="bliss-line" x1="704" y1="160" x2="736" y2="192"/><line class="bliss-line" x1="704" y1="224" x2="736" y2="192"/></g></svg>
