<svg xmlns="http://www.w3.org/2000/svg" preserveAspectRatio="xMinYMid" class="bliss-svg" viewBox="-8 -8 336 336"><style>
.bliss-line,.bliss-disc,.bliss-dot{stroke:#000;stroke-linejoin:round;stroke-linecap:round;stroke-width:8}
.bliss-line{fill:none}
.bliss-disc,.bliss-dot{fill:#000}
.bliss-text{font-family:"Helvetica Neue",Helvetica,Arial,"Liberation Sans",sans-serif;fill:#000}
</style><g><line class="bliss-line" x1="0" y1="128" x2="0" y2="256"/><line class="bliss-line" x1="0" y1="128" x2="64" y2="192"/><line class="bliss-line" x1="0" y1="256" x2="64" y2="192"/><line class="bliss-line" x1="16" y1="96" x2="32" y2="64"/><line class="bliss-line" x1="32" y1="64" x2="48" y2="96"/><path class="bliss-line" d="M 160,160 A 32,32 0 0,0 96,160"/><path class="bliss-line" d="M 96,160 Q 96,208 160,256"/><path class="bliss-line" d="M 224,160 A 32,32 0 0,0 160,160"/><path class="bliss-line" d="M 160,256 Q 224,208 224,160"/><path class="bliss-line" d="M 272,192 A 16,16 0 1,0 256,176"/><line class="bliss-line" x1="272" y1="192" x2="272" y2="208"/><circle class="bliss-dot" cx="272" cy="224" r="4"/><line class="bliss-line" x1="320" y1="160" x2="320" y2="208"/><circle class="bliss-dot" cx="320" cy="224" r="4"/></g></svg>
