<svg xmlns="http://www.w3.org/2000/svg" preserveAspectRatio="xMinYMid" class="bliss-svg" viewBox="-8 -8 496 336"><style>
.bliss-line,.bliss-disc,.bliss-dot{stroke:#000;stroke-linejoin:round;stroke-linecap:round;stroke-width:8}
.bliss-line{fill:none}
.bliss-disc,.bliss-dot{fill:#000}
.bliss-text{font-family:"Helvetica Neue",Helvetica,Arial,"Liberation Sans",sans-serif;fill:#000}
</style><g><circle class="bliss-line" cx="32" cy="192" r="32"/><line class="bliss-line" x1="0" y1="224" x2="32" y2="256"/><line class="bliss-line" x1="0" y1="256" x2="64" y2="256"/><line class="bliss-line" x1="32" y1="256" x2="64" y2="224"/><line class="bliss-line" x1="96" y1="256" x2="224" y2="256"/><circle class="bliss-dot" cx="128" cy="288" r="4"/><circle class="bliss-dot" cx="192" cy="288" r="4"/><circle class="bliss-line" cx="288" cy="192" r="32"/><circle class="bliss-dot" cx="288" cy="192" r="4"/><line class="bliss-line" x1="256" y1="256" x2="320" y2="256"/><path class="bliss-line" d="M 416,192 A 40,40 0 0,0 352,192"/><line class="bliss-line" x1="400" y1="272" x2="432" y2="240"/><line class="bliss-line" x1="400" y1="240" x2="432" y2="272"/><line class="bliss-line" x1="416" y1="128" x2="416" y2="288"/><path class="bliss-line" d="M 416,192 A 40,40 0 0,0 480,192"/></g></svg>
