<svg xmlns="http://www.w3.org/2000/svg" preserveAspectRatio="xMinYMid" class="bliss-svg" viewBox="-8 -8 448 336"><style>
.bliss-line,.bliss-disc,.bliss-dot{stroke:#000;stroke-linejoin:round;stroke-linecap:round;stroke-width:8}
.bliss-line{fill:none}
.bliss-disc,.bliss-dot{fill:#000}
.bliss-text{font-family:"Helvetica Neue",Helvetica,Arial,"Liberation Sans",sans-serif;fill:#000}
</style><g><path class="bliss-line" d="M 64,192 A 64,64 0 0,0 0,128"/><path class="bliss-line" d="M 128,128 A 64,64 0 0,0 64,192"/><line class="bliss-line" x1="160" y1="160" x2="192" y2="192"/><line class="bliss-line" x1="160" y1="224" x2="192" y2="192"/><line class="bliss-line" x1="208" y1="160" x2="208" y2="224"/><line class="bliss-line" x1="208" y1="160" x2="272" y2="160"/><line class="bliss-line" x1="208" y1="224" x2="272" y2="224"/><line class="bliss-line" x1="272" y1="160" x2="272" y2="224"/><path class="bliss-line" d="M 368,192 A 64,64 0 0,0 304,128"/><circle class="bliss-line" cx="368" cy="224" r="32"/><line class="bliss-line" x1="345.37258300203" y1="246.62741699797" x2="390.62741699793" y2="201.37258300206997"/><line class="bliss-line" x1="345.37258300203" y1="201.37258300206997" x2="390.62741699793" y2="246.62741699797"/><path class="bliss-line" d="M 432,128 A 64,64 0 0,0 368,192"/></g></svg>
