<svg xmlns="http://www.w3.org/2000/svg" preserveAspectRatio="xMinYMid" class="bliss-svg" viewBox="-8 -8 368 336"><style>
.bliss-line,.bliss-disc,.bliss-dot{stroke:#000;stroke-linejoin:round;stroke-linecap:round;stroke-width:8}
.bliss-line{fill:none}
.bliss-disc,.bliss-dot{fill:#000}
.bliss-text{font-family:"Helvetica Neue",Helvetica,Arial,"Liberation Sans",sans-serif;fill:#000}
</style><g><line class="bliss-line" x1="0" y1="128" x2="0" y2="192"/><line class="bliss-line" x1="0" y1="128" x2="64" y2="128"/><circle class="bliss-line" cx="32" cy="224" r="32"/><line class="bliss-line" x1="0" y1="192" x2="192" y2="192"/><line class="bliss-line" x1="9.37258300203" y1="246.62741699797" x2="54.62741699793" y2="201.37258300206997"/><line class="bliss-line" x1="9.37258300203" y1="201.37258300206997" x2="54.62741699793" y2="246.62741699797"/><line class="bliss-line" x1="64" y1="128" x2="64" y2="192"/><circle class="bliss-line" cx="96" cy="224" r="32"/><line class="bliss-line" x1="73.37258300203" y1="246.62741699797" x2="118.62741699793" y2="201.37258300206997"/><line class="bliss-line" x1="73.37258300203" y1="201.37258300206997" x2="118.62741699793" y2="246.62741699797"/><circle class="bliss-line" cx="160" cy="224" r="32"/><line class="bliss-line" x1="137.37258300203" y1="246.62741699797" x2="182.62741699793003" y2="201.37258300206997"/><line class="bliss-line" x1="137.37258300203" y1="201.37258300206997" x2="182.62741699793003" y2="246.62741699797"/><line class="bliss-line" x1="144" y1="176" x2="176" y2="144"/><line class="bliss-line" x1="160" y1="160" x2="192" y2="192"/><path class="bliss-line" d="M 288,192 A 40,40 0 0,0 224,192"/><path class="bliss-line" d="M 288,192 A 40,40 0 0,0 352,192"/></g></svg>
