<svg xmlns="http://www.w3.org/2000/svg" preserveAspectRatio="xMinYMid" class="bliss-svg" viewBox="-8 -8 560 336"><style>
.bliss-line,.bliss-disc,.bliss-dot{stroke:#000;stroke-linejoin:round;stroke-linecap:round;stroke-width:8}
.bliss-line{fill:none}
.bliss-disc,.bliss-dot{fill:#000}
.bliss-text{font-family:"Helvetica Neue",Helvetica,Arial,"Liberation Sans",sans-serif;fill:#000}
</style><g><line class="bliss-line" x1="0" y1="256" x2="64" y2="256"/><line class="bliss-line" x1="32" y1="128" x2="32" y2="256"/><line class="bliss-line" x1="96" y1="128" x2="96" y2="256"/><line class="bliss-line" x1="96" y1="128" x2="160" y2="192"/><line class="bliss-line" x1="96" y1="256" x2="160" y2="192"/><path class="bliss-line" d="M 256,160 A 32,32 0 0,0 192,160"/><path class="bliss-line" d="M 192,160 Q 192,208 256,256"/><path class="bliss-line" d="M 320,160 A 32,32 0 0,0 256,160"/><path class="bliss-line" d="M 256,256 Q 320,208 320,160"/><line class="bliss-line" x1="352" y1="224" x2="384" y2="256"/><line class="bliss-line" x1="384" y1="128" x2="384" y2="256"/><line class="bliss-line" x1="384" y1="256" x2="416" y2="224"/><path class="bliss-line" d="M 480,128 A 80,80 0 0,0 480,256"/><path class="bliss-line" d="M 496,192 A 16,16 0 1,0 480,176"/><line class="bliss-line" x1="496" y1="192" x2="496" y2="208"/><circle class="bliss-dot" cx="496" cy="224" r="4"/><line class="bliss-line" x1="544" y1="160" x2="544" y2="208"/><circle class="bliss-dot" cx="544" cy="224" r="4"/></g></svg>
