<svg xmlns="http://www.w3.org/2000/svg" preserveAspectRatio="xMinYMid" class="bliss-svg" viewBox="-8 -8 568 336"><style>
.bliss-line,.bliss-disc,.bliss-dot{stroke:#000;stroke-linejoin:round;stroke-linecap:round;stroke-width:8}
.bliss-line{fill:none}
.bliss-disc,.bliss-dot{fill:#000}
.bliss-text{font-family:"Helvetica Neue",Helvetica,Arial,"Liberation Sans",sans-serif;fill:#000}
</style><g><line class="bliss-line" x1="0" y1="192" x2="0" y2="256"/><path class="bliss-line" d="M 128,192 A 64,64 0 0,0 0,192"/><line class="bliss-line" x1="0" y1="256" x2="128" y2="256"/><line class="bliss-line" x1="128" y1="192" x2="128" y2="256"/><circle class="bliss-line" cx="192" cy="192" r="32"/><path class="bliss-line" d="M 256,160 A 32,32 0 0,0 192,160"/><path class="bliss-line" d="M 192,256 Q 256,208 256,160"/><line class="bliss-line" x1="256" y1="256" x2="384" y2="256"/><line class="bliss-line" x1="320" y1="128" x2="320" y2="256"/><line class="bliss-line" x1="320" y1="128" x2="384" y2="128"/><line class="bliss-line" x1="320" y1="192" x2="384" y2="192"/><line class="bliss-line" x1="384" y1="128" x2="384" y2="192"/><text class="bliss-text" text-anchor="middle" x="434.2855" y="256" style="font-size:88">T</text><text class="bliss-text" text-anchor="middle" x="482.2855" y="256" style="font-size:88">H</text><text class="bliss-text" text-anchor="middle" x="534.857" y="256" style="font-size:88">A</text></g></svg>
