<svg xmlns="http://www.w3.org/2000/svg" preserveAspectRatio="xMinYMid" class="bliss-svg" viewBox="-8 -8 240 336"><style>
.bliss-line,.bliss-disc,.bliss-dot{stroke:#000;stroke-linejoin:round;stroke-linecap:round;stroke-width:8}
.bliss-line{fill:none}
.bliss-disc,.bliss-dot{fill:#000}
.bliss-text{font-family:"Helvetica Neue",Helvetica,Arial,"Liberation Sans",sans-serif;fill:#000}
</style><g><path class="bliss-line" d="M 16,192 A 40,40 0 0,0 16,256"/><line class="bliss-line" x1="16" y1="192" x2="144" y2="192"/><line class="bliss-line" x1="16" y1="256" x2="144" y2="256"/><path class="bliss-line" d="M 144,256 A 40,40 0 0,0 144,192"/><line class="bliss-line" x1="48" y1="144" x2="80" y2="176"/><line class="bliss-line" x1="80" y1="176" x2="112" y2="144"/><line class="bliss-line" x1="48" y1="304" x2="80" y2="272"/><line class="bliss-line" x1="80" y1="272" x2="112" y2="304"/><path class="bliss-line" d="M 208,192 A 40,40 0 0,0 208,256"/><path class="bliss-line" d="M 208,192 A 40,40 0 0,0 208,128"/></g></svg>
