<svg xmlns="http://www.w3.org/2000/svg" preserveAspectRatio="xMinYMid" class="bliss-svg" viewBox="-8 -8 720 336"><style>
.bliss-line,.bliss-disc,.bliss-dot{stroke:#000;stroke-linejoin:round;stroke-linecap:round;stroke-width:8}
.bliss-line{fill:none}
.bliss-disc,.bliss-dot{fill:#000}
.bliss-text{font-family:"Helvetica Neue",Helvetica,Arial,"Liberation Sans",sans-serif;fill:#000}
</style><g><line class="bliss-line" x1="0" y1="256" x2="256" y2="256"/><path class="bliss-line" d="M 128,192 A 64,64 0 0,0 256,192"/><line class="bliss-line" x1="128" y1="128" x2="256" y2="128"/><circle class="bliss-line" cx="192" cy="160" r="32"/><circle class="bliss-line" cx="192" cy="224" r="32"/><line class="bliss-line" x1="192" y1="128" x2="192" y2="256"/><line class="bliss-line" x1="256" y1="128" x2="256" y2="256"/><line class="bliss-line" x1="288" y1="160" x2="288" y2="224"/><line class="bliss-line" x1="288" y1="160" x2="352" y2="160"/><line class="bliss-line" x1="288" y1="224" x2="352" y2="224"/><line class="bliss-line" x1="352" y1="160" x2="352" y2="224"/><line class="bliss-line" x1="384" y1="256" x2="416" y2="192"/><line class="bliss-line" x1="416" y1="192" x2="448" y2="256"/><path class="bliss-line" d="M 544,160 A 32,32 0 0,0 480,160"/><path class="bliss-line" d="M 480,160 Q 480,208 544,256"/><path class="bliss-line" d="M 608,160 A 32,32 0 0,0 544,160"/><path class="bliss-line" d="M 544,256 Q 608,208 608,160"/><line class="bliss-line" x1="640" y1="160" x2="672" y2="128"/><line class="bliss-line" x1="672" y1="128" x2="672" y2="256"/><line class="bliss-line" x1="672" y1="128" x2="704" y2="160"/></g></svg>
