<svg xmlns="http://www.w3.org/2000/svg" preserveAspectRatio="xMinYMid" class="bliss-svg" viewBox="-8 -8 368 336"><style>
.bliss-line,.bliss-disc,.bliss-dot{stroke:#000;stroke-linejoin:round;stroke-linecap:round;stroke-width:8}
.bliss-line{fill:none}
.bliss-disc,.bliss-dot{fill:#000}
.bliss-text{font-family:"Helvetica Neue",Helvetica,Arial,"Liberation Sans",sans-serif;fill:#000}
</style><g><path class="bliss-line" d="M 16,192 A 40,40 0 0,0 16,256"/><path class="bliss-line" d="M 16,192 A 40,40 0 0,0 16,128"/><line class="bliss-line" x1="16" y1="256" x2="112" y2="256"/><path class="bliss-line" d="M 112,128 A 40,40 0 0,0 112,192"/><path class="bliss-line" d="M 112,256 A 40,40 0 0,0 112,192"/><line class="bliss-line" x1="160" y1="256" x2="288" y2="128"/><line class="bliss-line" x1="192" y1="160" x2="192" y2="224"/><line class="bliss-line" x1="192" y1="160" x2="256" y2="160"/><line class="bliss-line" x1="192" y1="224" x2="256" y2="224"/><line class="bliss-line" x1="256" y1="160" x2="256" y2="224"/><path class="bliss-line" d="M 336,192 A 40,40 0 0,0 336,256"/><path class="bliss-line" d="M 336,192 A 40,40 0 0,0 336,128"/></g></svg>
