<svg xmlns="http://www.w3.org/2000/svg" preserveAspectRatio="xMinYMid" class="bliss-svg" viewBox="-8 -8 128 336"><style>
.bliss-line,.bliss-disc,.bliss-dot{stroke:#000;stroke-linejoin:round;stroke-linecap:round;stroke-width:8}
.bliss-line{fill:none}
.bliss-disc,.bliss-dot{fill:#000}
.bliss-text{font-family:"Helvetica Neue",Helvetica,Arial,"Liberation Sans",sans-serif;fill:#000}
</style><g><path class="bliss-line" d="M 16,192 A 40,40 0 0,0 16,256"/><path class="bliss-line" d="M 48,128 A 80,80 0 0,0 16,192"/><line class="bliss-line" x1="16" y1="256" x2="80" y2="256"/><path class="bliss-line" d="M 48,208 A 20,20 0 0,0 48,240"/><path class="bliss-line" d="M 48,240 A 20,20 0 0,0 48,208"/><path class="bliss-line" d="M 80,192 A 80,80 0 0,0 48,128"/><path class="bliss-line" d="M 112,64 A 64,64 0 0,0 48,128"/><path class="bliss-line" d="M 80,256 A 40,40 0 0,0 80,192"/></g></svg>
