<svg xmlns="http://www.w3.org/2000/svg" preserveAspectRatio="xMinYMid" class="bliss-svg" viewBox="-8 -8 240 336"><style>
.bliss-line,.bliss-disc,.bliss-dot{stroke:#000;stroke-linejoin:round;stroke-linecap:round;stroke-width:8}
.bliss-line{fill:none}
.bliss-disc,.bliss-dot{fill:#000}
.bliss-text{font-family:"Helvetica Neue",Helvetica,Arial,"Liberation Sans",sans-serif;fill:#000}
</style><g><line class="bliss-line" x1="0" y1="192" x2="32" y2="160"/><line class="bliss-line" x1="0" y1="192" x2="32" y2="224"/><line class="bliss-line" x1="48" y1="160" x2="48" y2="224"/><line class="bliss-line" x1="48" y1="160" x2="176" y2="160"/><line class="bliss-line" x1="48" y1="224" x2="176" y2="224"/><line class="bliss-line" x1="112" y1="160" x2="112" y2="224"/><line class="bliss-line" x1="176" y1="160" x2="176" y2="224"/><path class="bliss-line" d="M 144,128 A 40,40 0 0,0 80,128"/><path class="bliss-line" d="M 80,256 A 40,40 0 0,0 144,256"/><path class="bliss-line" d="M 128,144 A 20,20 0 0,0 96,144"/><path class="bliss-line" d="M 96,240 A 20,20 0 0,0 128,240"/><line class="bliss-line" x1="192" y1="160" x2="224" y2="192"/><line class="bliss-line" x1="192" y1="224" x2="224" y2="192"/></g></svg>
