<svg xmlns="http://www.w3.org/2000/svg" preserveAspectRatio="xMinYMid" class="bliss-svg" viewBox="-8 -8 144 336"><style>
.bliss-line,.bliss-disc,.bliss-dot{stroke:#000;stroke-linejoin:round;stroke-linecap:round;stroke-width:8}
.bliss-line{fill:none}
.bliss-disc,.bliss-dot{fill:#000}
.bliss-text{font-family:"Helvetica Neue",Helvetica,Arial,"Liberation Sans",sans-serif;fill:#000}
</style><g><path class="bliss-line" d="M 64,192 A 32,32 0 0,0 0,192"/><path class="bliss-line" d="M 0,192 A 64,64 0 0,0 64,256"/><path class="bliss-line" d="M 128,128 A 64,64 0 0,0 64,192"/><path class="bliss-line" d="M 128,192 A 32,32 0 0,0 64,192"/><path class="bliss-line" d="M 64,256 A 64,64 0 0,0 128,192"/><path class="bliss-line" d="M 64,208 A 20,20 0 0,0 64,240"/><path class="bliss-line" d="M 64,240 A 20,20 0 0,0 64,208"/></g></svg>
