<svg xmlns="http://www.w3.org/2000/svg" preserveAspectRatio="xMinYMid" class="bliss-svg" viewBox="-8 -8 256 336"><style>
.bliss-line,.bliss-disc,.bliss-dot{stroke:#000;stroke-linejoin:round;stroke-linecap:round;stroke-width:8}
.bliss-line{fill:none}
.bliss-disc,.bliss-dot{fill:#000}
.bliss-text{font-family:"Helvetica Neue",Helvetica,Arial,"Liberation Sans",sans-serif;fill:#000}
</style><g><line class="bliss-line" x1="0" y1="192" x2="128" y2="64"/><line class="bliss-line" x1="0" y1="192" x2="240" y2="192"/><circle class="bliss-line" cx="80" cy="160" r="32"/><circle class="bliss-line" cx="80" cy="224" r="32"/><line class="bliss-line" x1="57.37258300203" y1="182.62741699797" x2="102.62741699793" y2="137.37258300206997"/><line class="bliss-line" x1="57.37258300203" y1="137.37258300206997" x2="102.62741699793" y2="182.62741699797"/><line class="bliss-line" x1="57.37258300203" y1="246.62741699797" x2="102.62741699793" y2="201.37258300206997"/><line class="bliss-line" x1="57.37258300203" y1="201.37258300206997" x2="102.62741699793" y2="246.62741699797"/><circle class="bliss-line" cx="144" cy="224" r="32"/><line class="bliss-line" x1="121.37258300203" y1="246.62741699797" x2="166.62741699793" y2="201.37258300206997"/><line class="bliss-line" x1="121.37258300203" y1="201.37258300206997" x2="166.62741699793" y2="246.62741699797"/><circle class="bliss-line" cx="208" cy="224" r="32"/><line class="bliss-line" x1="185.37258300203" y1="246.62741699797" x2="230.62741699793003" y2="201.37258300206997"/><line class="bliss-line" x1="185.37258300203" y1="201.37258300206997" x2="230.62741699793003" y2="246.62741699797"/><line class="bliss-line" x1="192" y1="176" x2="224" y2="144"/><line class="bliss-line" x1="208" y1="160" x2="240" y2="192"/></g></svg>
